<svg width="250" height="200" viewBox="0 0 250 200" fill="none" xmlns="http://www.w3.org/2000/svg">
<path fill-rule="evenodd" clip-rule="evenodd" d="M70.8472 135H187.126C190.979 135 194.103 131.866 194.103 128C194.103 124.134 190.979 121 187.126 121C187.126 121 181.146 117.866 181.146 114C181.146 110.134 185.085 107 189.943 107H200.083C203.936 107 207.06 103.866 207.06 100C207.06 96.134 203.936 93 200.083 93H178.156C182.009 93 185.133 89.866 185.133 86C185.133 82.134 182.009 79 178.156 79H218.023C221.876 79 225 75.866 225 72C225 68.134 221.876 65 218.023 65H86.794C82.9409 65 79.8173 68.134 79.8173 72C79.8173 75.866 82.9409 79 86.794 79H46.9269C43.0738 79 39.9502 82.134 39.9502 86C39.9502 89.866 43.0738 93 46.9269 93H71.8439C75.697 93 78.8206 96.134 78.8206 100C78.8206 103.866 75.697 107 71.8439 107H31.9767C28.1236 107 25 110.134 25 114C25 117.866 28.1236 121 31.9767 121H70.8472C66.994 121 63.8704 124.134 63.8704 128C63.8704 131.866 66.994 135 70.8472 135ZM210 100C210 103.866 213.134 107 217 107C220.866 107 224 103.866 224 100C224 96.1341 220.866 93.0001 217 93.0001C213.134 93.0001 210 96.1341 210 100Z" fill="#EBEBEB"/>
<path fill-rule="evenodd" clip-rule="evenodd" d="M154.588 141.728C157.869 139.617 160.786 136.982 162.684 134.855L154.588 141.728ZM165.747 131.321C167.317 129.398 168.728 127.387 169.98 125.306C172.734 120.728 174.72 115.81 175.933 110.739C177.16 105.611 177.598 100.327 177.243 95.0817C176.933 90.5045 176.019 85.9566 174.5 81.5671C172.994 77.2123 170.891 73.0136 168.19 69.0969C166.58 66.7631 164.758 64.5294 162.724 62.4226C159.737 59.3294 156.461 56.685 152.979 54.491C149.239 52.1337 145.262 50.2963 141.153 48.9809C136.008 47.3335 130.656 46.5048 125.303 46.4988C121.138 46.4941 116.972 46.9875 112.903 47.9807C108.322 49.0988 103.864 50.8505 99.6657 53.2384C95.9753 55.3375 92.4862 57.9283 89.2925 61.0125C85.2789 64.8883 82.0279 69.2574 79.5423 73.9333C77.1088 78.5112 75.4089 83.3831 74.4456 88.3741C73.453 93.5161 73.2422 98.7845 73.816 103.988C74.5598 110.732 76.6219 117.367 80.0087 123.476C82.1758 127.385 84.8853 131.079 88.139 134.448C93.3042 139.797 99.3346 143.804 105.793 146.461C113.648 149.691 122.136 150.925 130.472 150.146C137.468 149.493 144.357 147.422 150.675 143.925" fill="white"/>
<path d="M153.776 140.467C153.079 140.915 152.878 141.843 153.326 142.54C153.775 143.237 154.703 143.438 155.399 142.99L153.776 140.467ZM163.804 135.854C164.355 135.236 164.301 134.288 163.683 133.736C163.065 133.185 162.117 133.238 161.565 133.857L163.804 135.854ZM164.585 130.372C164.061 131.014 164.157 131.959 164.798 132.483C165.44 133.007 166.385 132.911 166.909 132.269L164.585 130.372ZM169.98 125.306L168.695 124.532L169.98 125.306ZM175.933 110.739L177.392 111.088L175.933 110.739ZM177.243 95.0817L175.746 95.183L177.243 95.0817ZM174.5 81.5671L175.918 81.0766L174.5 81.5671ZM168.19 69.0969L166.955 69.9485L168.19 69.0969ZM162.724 62.4226L161.645 63.4646L162.724 62.4226ZM152.979 54.491L153.779 53.222L152.979 54.491ZM141.153 48.9809L141.611 47.5523L141.153 48.9809ZM125.303 46.4988L125.304 44.9988L125.303 46.4988ZM112.903 47.9807L112.548 46.5235L112.903 47.9807ZM99.6657 53.2384L98.924 51.9346L99.6657 53.2384ZM89.2925 61.0125L90.3345 62.0915L89.2925 61.0125ZM79.5423 73.9333L80.8668 74.6374L79.5423 73.9333ZM74.4456 88.3741L75.9184 88.6584L74.4456 88.3741ZM73.816 103.988L72.3251 104.152L73.816 103.988ZM80.0087 123.476L81.3206 122.749L80.0087 123.476ZM88.139 134.448L89.218 133.406L88.139 134.448ZM105.793 146.461L105.223 147.848L105.793 146.461ZM130.472 150.146L130.332 148.653L130.472 150.146ZM151.402 145.238C152.126 144.837 152.389 143.924 151.988 143.199C151.587 142.474 150.674 142.212 149.949 142.613L151.402 145.238ZM155.399 142.99C158.803 140.799 161.822 138.074 163.804 135.854L161.565 133.857C159.75 135.89 156.935 138.434 153.776 140.467L155.399 142.99ZM166.909 132.269C168.524 130.291 169.977 128.221 171.266 126.079L168.695 124.532C167.479 126.553 166.109 128.505 164.585 130.372L166.909 132.269ZM171.266 126.079C174.1 121.367 176.143 116.306 177.392 111.088L174.474 110.39C173.296 115.314 171.368 120.089 168.695 124.532L171.266 126.079ZM177.392 111.088C178.654 105.812 179.104 100.376 178.739 94.9804L175.746 95.183C176.091 100.278 175.666 105.41 174.474 110.39L177.392 111.088ZM178.739 94.9804C178.42 90.2719 177.481 85.593 175.918 81.0766L173.083 82.0576C174.558 86.3201 175.445 90.7371 175.746 95.183L178.739 94.9804ZM175.918 81.0766C174.367 76.5957 172.204 72.2752 169.425 68.2454L166.955 69.9485C169.578 73.7519 171.62 77.829 173.083 82.0576L175.918 81.0766ZM169.425 68.2454C167.769 65.8441 165.895 63.5467 163.803 61.3806L161.645 63.4646C163.622 65.512 165.392 67.682 166.955 69.9485L169.425 68.2454ZM163.803 61.3806C160.732 58.2002 157.361 55.4797 153.779 53.222L152.18 55.76C155.56 57.8903 158.742 60.4587 161.645 63.4646L163.803 61.3806ZM153.779 53.222C149.93 50.7963 145.838 48.9057 141.611 47.5523L140.696 50.4094C144.686 51.6868 148.548 53.471 152.18 55.76L153.779 53.222ZM141.611 47.5523C136.317 45.8574 130.811 45.005 125.304 44.9988L125.301 47.9988C130.5 48.0047 135.699 48.8096 140.696 50.4094L141.611 47.5523ZM125.304 44.9988C121.02 44.994 116.734 45.5015 112.548 46.5235L113.259 49.4379C117.21 48.4735 121.255 47.9943 125.301 47.9988L125.304 44.9988ZM112.548 46.5235C107.834 47.674 103.245 49.4768 98.924 51.9346L100.407 54.5423C104.482 52.2243 108.811 50.5236 113.259 49.4379L112.548 46.5235ZM98.924 51.9346C95.1255 54.0952 91.5353 56.7613 88.2505 59.9334L90.3345 62.0915C93.4371 59.0952 96.8251 56.5798 100.407 54.5423L98.924 51.9346ZM88.2505 59.9334C84.1223 63.92 80.7764 68.416 78.2178 73.2292L80.8668 74.6374C83.2794 70.0988 86.4356 65.8566 90.3345 62.0915L88.2505 59.9334ZM78.2178 73.2292C75.713 77.9411 73.9639 82.9548 72.9727 88.0898L75.9184 88.6584C76.8539 83.8114 78.5045 79.0812 80.8668 74.6374L78.2178 73.2292ZM72.9727 88.0898C71.9516 93.3801 71.7348 98.7997 72.3251 104.152L75.307 103.824C74.7496 98.7693 74.9544 93.6522 75.9184 88.6584L72.9727 88.0898ZM72.3251 104.152C73.0902 111.09 75.2116 117.917 78.6968 124.204L81.3206 122.749C78.0321 116.817 76.0294 110.374 75.307 103.824L72.3251 104.152ZM78.6968 124.204C80.9269 128.226 83.7145 132.026 87.06 135.49L89.218 133.406C86.0562 130.132 83.4247 126.545 81.3206 122.749L78.6968 124.204ZM87.06 135.49C92.3717 140.991 98.5761 145.114 105.223 147.848L106.364 145.073C100.093 142.494 94.2368 138.604 89.218 133.406L87.06 135.49ZM105.223 147.848C113.304 151.172 122.036 152.44 130.611 151.64L130.332 148.653C122.235 149.409 113.991 148.21 106.364 145.073L105.223 147.848ZM130.611 151.64C137.809 150.968 144.899 148.837 151.402 145.238L149.949 142.613C143.816 146.007 137.127 148.018 130.332 148.653L130.611 151.64Z" fill="black"/>
<path d="M73 143V148" stroke="black" stroke-width="4" stroke-linecap="round" stroke-linejoin="round"/>
<path d="M73 158V163" stroke="black" stroke-width="4" stroke-linecap="round" stroke-linejoin="round"/>
<path d="M63 153H68" stroke="black" stroke-width="4" stroke-linecap="round" stroke-linejoin="round"/>
<path d="M78 153H83" stroke="black" stroke-width="4" stroke-linecap="round" stroke-linejoin="round"/>
<path fill-rule="evenodd" clip-rule="evenodd" d="M111 55.9997C108.829 56.8783 106.702 57.9276 104.639 59.1471C101.434 61.0421 98.3857 63.3483 95.5731 66.0644C94.4202 67.1777 93.3347 68.3331 92.317 69.5251M88.9653 73.8262C88.2265 74.9426 87.5466 76.087 86.9257 77.255C86.4671 78.1177 86.0407 78.9933 85.6464 79.88" fill="white"/>
<path d="M111.75 57.8536C112.774 57.4392 113.268 56.2732 112.854 55.2493C112.439 54.2255 111.273 53.7314 110.249 54.1458L111.75 57.8536ZM104.639 59.1471L103.621 57.4255L104.639 59.1471ZM95.5731 66.0644L94.1838 64.6257L95.5731 66.0644ZM90.796 68.2264C90.0787 69.0665 90.1783 70.3289 91.0183 71.0461C91.8583 71.7634 93.1207 71.6638 93.838 70.8238L90.796 68.2264ZM90.6331 74.9299C91.2427 74.0088 90.9901 72.7679 90.069 72.1583C89.1478 71.5488 87.907 71.8013 87.2974 72.7225L90.6331 74.9299ZM86.9257 77.255L88.6917 78.1938L86.9257 77.255ZM83.8189 79.0674C83.3702 80.0767 83.8246 81.2587 84.8339 81.7075C85.8432 82.1562 87.0252 81.7018 87.474 80.6925L83.8189 79.0674ZM110.249 54.1458C107.987 55.0617 105.77 56.1551 103.621 57.4255L105.657 60.8686C107.634 59.7 109.672 58.6949 111.75 57.8536L110.249 54.1458ZM103.621 57.4255C100.283 59.3997 97.1091 61.8007 94.1838 64.6257L96.9624 67.503C99.6622 64.8959 102.586 62.6845 105.657 60.8686L103.621 57.4255ZM94.1838 64.6257C92.9847 65.7836 91.8553 66.9858 90.796 68.2264L93.838 70.8238C94.8142 69.6805 95.8557 68.5718 96.9624 67.503L94.1838 64.6257ZM87.2974 72.7225C86.5231 73.8925 85.8105 75.092 85.1597 76.3163L88.6917 78.1938C89.2827 77.082 89.9299 75.9926 90.6331 74.9299L87.2974 72.7225ZM85.1597 76.3163C84.6791 77.2205 84.2321 78.1382 83.8189 79.0674L87.474 80.6925C87.8492 79.8485 88.2552 79.015 88.6917 78.1938L85.1597 76.3163Z" fill="black"/>
<path d="M178 35V40" stroke="black" stroke-width="4" stroke-linecap="round" stroke-linejoin="round"/>
<path d="M178 50V55" stroke="black" stroke-width="4" stroke-linecap="round" stroke-linejoin="round"/>
<path d="M168 45H173" stroke="black" stroke-width="4" stroke-linecap="round" stroke-linejoin="round"/>
<path d="M183 45H188" stroke="black" stroke-width="4" stroke-linecap="round" stroke-linejoin="round"/>
<path d="M124.5 82L124.5 99.5889L124.5 117.178" stroke="black" stroke-width="4" stroke-linecap="round"/>
<path d="M142 99.5001L106.822 99.5" stroke="black" stroke-width="4" stroke-linecap="round"/>
</svg>
