<svg width="250" height="200" viewBox="0 0 250 200" fill="none" xmlns="http://www.w3.org/2000/svg">
<path opacity="0.69" fill-rule="evenodd" clip-rule="evenodd" d="M71 135H187C190.866 135 194 131.866 194 128C194 124.134 190.866 121 187 121C187 121 181 117.866 181 114C181 110.134 184.952 107 189.826 107H200C203.866 107 207 103.866 207 100C207 96.134 203.866 93 200 93H178C181.866 93 185 89.866 185 86C185 82.134 181.866 79 178 79H218C221.866 79 225 75.866 225 72C225 68.134 221.866 65 218 65H87C83.134 65 80 68.134 80 72C80 75.866 83.134 79 87 79H47C43.134 79 40 82.134 40 86C40 89.866 43.134 93 47 93H72C75.866 93 79 96.134 79 100C79 103.866 75.866 107 72 107H32C28.134 107 25 110.134 25 114C25 117.866 28.134 121 32 121H71C67.134 121 64 124.134 64 128C64 131.866 67.134 135 71 135ZM211 99.9998C211 103.866 214.134 107 218 107C221.866 107 225 103.866 225 99.9998C225 96.1338 221.866 92.9998 218 92.9998C214.134 92.9998 211 96.1338 211 99.9998Z" fill="#D1D1D1"/>
<path d="M166.499 42.1893V42.1894L166.5 47.0186H96.5V42.1893C96.5 39.5227 98.6567 37.361 101.304 37.361H116.396H117.896V35.861V33.3218C117.896 30.6512 120.049 28.5 122.692 28.5H140.308C142.954 28.5 145.103 30.6524 145.103 33.3218V35.861V37.361H146.603H161.696C164.345 37.361 166.499 39.5172 166.499 42.1893ZM113.883 125.5C107.758 125.5 102.792 120.511 102.792 114.337V55.0836H160.206V114.337C160.206 120.51 155.232 125.5 149.115 125.5H113.883Z" fill="white" stroke="#333333" stroke-width="3"/>
<path d="M117.5 71.5V109.5" stroke="#333333" stroke-width="3" stroke-linecap="round"/>
<path d="M148.5 71.5V109.5" stroke="#333333" stroke-width="3" stroke-linecap="round"/>
<path d="M133.5 71.5V109.5" stroke="#333333" stroke-width="3" stroke-linecap="round"/>
</svg>
