<svg width="222" height="150" viewBox="0 0 222 150" fill="none" xmlns="http://www.w3.org/2000/svg">
<path fill-rule="evenodd" clip-rule="evenodd" d="M61.1496 124H171.485C176.624 124 180.79 120.105 180.79 115.3C180.79 110.495 176.624 106.6 171.485 106.6C171.485 106.6 163.509 102.705 163.509 97.9C163.509 93.0951 168.762 89.2 175.241 89.2H188.766C193.905 89.2 198.071 85.3049 198.071 80.5C198.071 75.6951 193.905 71.8 188.766 71.8H159.521C164.66 71.8 168.826 67.9049 168.826 63.1C168.826 58.2951 164.66 54.4 159.521 54.4H212.694C217.833 54.4 221.999 50.5049 221.999 45.7C221.999 40.8951 217.833 37 212.694 37H82.419C77.2798 37 73.1136 40.8951 73.1136 45.7C73.1136 50.5049 77.2798 54.4 82.419 54.4H29.2454C24.1062 54.4 19.9401 58.2951 19.9401 63.1C19.9401 67.9049 24.1062 71.8 29.2454 71.8H62.4789C67.6181 71.8 71.7843 75.6951 71.7843 80.5C71.7843 85.3049 67.6181 89.2 62.4789 89.2H9.30537C4.16615 89.2 0 93.0951 0 97.9C0 102.705 4.16615 106.6 9.30537 106.6H61.1496C56.0103 106.6 51.8442 110.495 51.8442 115.3C51.8442 120.105 56.0103 124 61.1496 124ZM203 76.5C203 81.7467 207.253 86 212.5 86C217.747 86 222 81.7467 222 76.5C222 71.2533 217.747 67 212.5 67C207.253 67 203 71.2533 203 76.5Z" fill="#EBEBEB"/>
<path d="M47 36.3C47 35.582 47.582 35 48.3 35H162.7C163.418 35 164 35.582 164 36.3V112.7C164 113.418 163.418 114 162.7 114H48.3C47.582 114 47 113.418 47 112.7V36.3Z" fill="white"/>
<path d="M47 36.3C47 35.582 47.582 35 48.3 35H162.7C163.418 35 164 35.582 164 36.3V52.7C164 53.418 163.418 54 162.7 54H48.3C47.582 54 47 53.418 47 52.7V36.3Z" fill="#F2F2F2"/>
<path d="M99 81.75H112.5" stroke="black" stroke-width="4" stroke-linecap="round"/>
<path d="M105.75 88.5V75" stroke="black" stroke-width="4" stroke-linecap="round"/>
<path d="M75.3 64C74.582 64 74 64.582 74 65.3V99.7C74 100.418 74.582 101 75.3 101H136.7C137.418 101 138 100.418 138 99.7V65.3C138 64.582 137.418 64 136.7 64H75.3Z" fill="#F2F2F2"/>
<path d="M131 83C131 80.7909 132.791 79 135 79H172C174.209 79 176 80.7909 176 83V120C176 122.209 174.209 124 172 124H135C132.791 124 131 122.209 131 120V83Z" fill="white"/>
<path fill-rule="evenodd" clip-rule="evenodd" d="M164 51V76H160V51H164Z" fill="black"/>
<path fill-rule="evenodd" clip-rule="evenodd" d="M51.0003 39V50H160V39H51.0003ZM48.3003 35C47.5823 35 47.0003 35.582 47.0003 36.3V52.7C47.0003 53.418 47.5823 54 48.3003 54H162.7C163.418 54 164 53.418 164 52.7V36.3C164 35.582 163.418 35 162.7 35H48.3003Z" fill="black"/>
<path d="M54.0003 44C54.0003 42.8954 54.8957 42 56.0003 42C57.1049 42 58.0003 42.8954 58.0003 44C58.0003 45.1046 57.1049 46 56.0003 46C54.8957 46 54.0003 45.1046 54.0003 44Z" fill="black"/>
<path d="M60.0003 44C60.0003 42.8954 60.8957 42 62.0003 42C63.1049 42 64.0003 42.8954 64.0003 44C64.0003 45.1046 63.1049 46 62.0003 46C60.8957 46 60.0003 45.1046 60.0003 44Z" fill="black"/>
<path d="M66.0003 44C66.0003 42.8954 66.8957 42 68.0003 42C69.1049 42 70.0003 42.8954 70.0003 44C70.0003 45.1046 69.1049 46 68.0003 46C66.8957 46 66.0003 45.1046 66.0003 44Z" fill="black"/>
<path fill-rule="evenodd" clip-rule="evenodd" d="M72.0003 65.3C72.0003 63.4775 73.4778 62 75.3003 62H78.882C79.9865 62 80.882 62.8954 80.882 64C80.882 65.1046 79.9865 66 78.882 66H76.0003V69.3133C76.0003 70.4179 75.1049 71.3133 74.0003 71.3133C72.8957 71.3133 72.0003 70.4179 72.0003 69.3133V65.3ZM85.0686 64C85.0686 62.8954 85.9641 62 87.0686 62H94.232C95.3365 62 96.232 62.8954 96.232 64C96.232 65.1046 95.3365 66 94.232 66H87.0686C85.9641 66 85.0686 65.1046 85.0686 64ZM100.419 64C100.419 62.8954 101.314 62 102.419 62H109.582C110.687 62 111.582 62.8954 111.582 64C111.582 65.1046 110.687 66 109.582 66H102.419C101.314 66 100.419 65.1046 100.419 64ZM115.769 64C115.769 62.8954 116.664 62 117.769 62H124.932C126.037 62 126.932 62.8954 126.932 64C126.932 65.1046 126.037 66 124.932 66H117.769C116.664 66 115.769 65.1046 115.769 64ZM131.119 64C131.119 62.8954 132.014 62 133.119 62H136.7C138.523 62 140 63.4775 140 65.3V69.3133C140 70.4179 139.105 71.3133 138 71.3133C136.896 71.3133 136 70.4179 136 69.3133V66H133.119C132.014 66 131.119 65.1046 131.119 64ZM74.0003 76.4867C75.1049 76.4867 76.0003 77.3821 76.0003 78.4867V86.5133C76.0003 87.6179 75.1049 88.5133 74.0003 88.5133C72.8957 88.5133 72.0003 87.6179 72.0003 86.5133V78.4867C72.0003 77.3821 72.8957 76.4867 74.0003 76.4867ZM138 76.4867C139.105 76.4867 140 77.3821 140 78.4867V79.5133C140 80.6179 139.105 81.5133 138 81.5133C136.896 81.5133 136 80.6179 136 79.5133V78.4867C136 77.3821 136.896 76.4867 138 76.4867ZM74.0003 93.6867C75.1049 93.6867 76.0003 94.5821 76.0003 95.6867V99H78.882C79.9865 99 80.882 99.8954 80.882 101C80.882 102.105 79.9865 103 78.882 103H75.3003C73.4778 103 72.0003 101.523 72.0003 99.7V95.6867C72.0003 94.5821 72.8957 93.6867 74.0003 93.6867ZM133 93.6867C134.105 93.6867 135 94.5821 135 95.6867V99.7C135 101.523 134.523 103 132.7 103H133.119C132.014 103 131.119 102.105 131.119 101C131.119 99.8954 132.014 99 133.119 99H131V95.6867C131 94.5821 131.896 93.6867 133 93.6867ZM85.0686 101C85.0686 99.8954 85.9641 99 87.0686 99H94.232C95.3365 99 96.232 99.8954 96.232 101C96.232 102.105 95.3365 103 94.232 103H87.0686C85.9641 103 85.0686 102.105 85.0686 101ZM100.419 101C100.419 99.8954 101.314 99 102.419 99H109.582C110.687 99 111.582 99.8954 111.582 101C111.582 102.105 110.687 103 109.582 103H102.419C101.314 103 100.419 102.105 100.419 101ZM115.769 101C115.769 99.8954 116.664 99 117.769 99H124.932C126.037 99 126.932 99.8954 126.932 101C126.932 102.105 126.037 103 124.932 103H117.769C116.664 103 115.769 102.105 115.769 101Z" fill="black"/>
<path fill-rule="evenodd" clip-rule="evenodd" d="M172 83H135V120H172V83ZM135 79C132.791 79 131 80.7909 131 83V120C131 122.209 132.791 124 135 124H172C174.209 124 176 122.209 176 120V83C176 80.7909 174.209 79 172 79H135Z" fill="black"/>
<path d="M163.996 100.768C163.991 100.962 163.925 101.151 163.809 101.306C163.692 101.462 163.53 101.578 163.345 101.639L155.786 104.31C155.448 104.428 155.14 104.621 154.887 104.875C154.634 105.128 154.441 105.436 154.322 105.774L151.673 113.349C151.611 113.538 151.491 113.704 151.329 113.821C151.167 113.938 150.973 114.001 150.773 114C150.571 114 150.374 113.937 150.209 113.82C150.044 113.704 149.919 113.539 149.851 113.349L142.072 93.332C141.999 93.1553 141.981 92.9602 142.022 92.7731C142.062 92.586 142.159 92.4158 142.299 92.2854C142.387 92.1958 142.492 92.1244 142.607 92.0754C142.723 92.0264 142.847 92.0008 142.972 92C143.097 92.001 143.22 92.0208 143.338 92.0585L163.382 99.8456C163.574 99.9053 163.741 100.03 163.853 100.198C163.965 100.365 164.015 100.567 163.996 100.768Z" fill="black"/>
<path fill-rule="evenodd" clip-rule="evenodd" d="M51.0003 51V112H129V116H50.3003C48.4778 116 47.0003 114.523 47.0003 112.7V51H51.0003Z" fill="black"/>
<path fill-rule="evenodd" clip-rule="evenodd" d="M95.0003 82C95.0003 80.8954 95.8957 80 97.0003 80H114C115.105 80 116 80.8954 116 82C116 83.1046 115.105 84 114 84H97.0003C95.8957 84 95.0003 83.1046 95.0003 82Z" fill="black"/>
<path fill-rule="evenodd" clip-rule="evenodd" d="M105 72C106.105 72 107 72.8954 107 74V90C107 91.1046 106.105 92 105 92C103.896 92 103 91.1046 103 90V74C103 72.8954 103.896 72 105 72Z" fill="black"/>
<path fill-rule="evenodd" clip-rule="evenodd" d="M189.431 41.1505C189.204 41.0606 188.956 41.0112 188.697 41.0112H171.328C170.224 41.0112 169.328 41.9067 169.328 43.0112C169.328 44.1158 170.224 45.0112 171.328 45.0112H188.697C188.956 45.0112 189.204 44.9619 189.431 44.872C190.172 44.5792 190.697 43.8564 190.697 43.0112C190.697 42.166 190.172 41.4433 189.431 41.1505ZM192.795 41.1505C192.054 41.4433 191.53 42.1661 191.53 43.0112C191.53 43.8564 192.054 44.5792 192.795 44.872C193.023 44.9619 193.27 45.0112 193.53 45.0112H195.776C196.881 45.0112 197.776 44.1158 197.776 43.0112C197.776 41.9067 196.881 41.0112 195.776 41.0112H193.53C193.27 41.0112 193.023 41.0606 192.795 41.1505ZM172.035 50.8759C172.035 49.7713 172.93 48.8759 174.035 48.8759H182.302C183.407 48.8759 184.302 49.7713 184.302 50.8759C184.302 51.9804 183.407 52.8759 182.302 52.8759H174.035C172.93 52.8759 172.035 51.9804 172.035 50.8759Z" fill="black"/>
<path fill-rule="evenodd" clip-rule="evenodd" d="M12.4395 92C12.4395 90.8954 13.3349 90 14.4395 90H31.8078C32.9123 90 33.8078 90.8954 33.8078 92C33.8078 93.1045 32.9123 94 31.8078 94H14.4395C13.3349 94 12.4395 93.1045 12.4395 92Z" fill="black"/>
<path fill-rule="evenodd" clip-rule="evenodd" d="M2.28223 92C2.28223 90.8954 3.17766 90 4.28223 90H8.55073C9.6553 90 10.5507 90.8954 10.5507 92C10.5507 93.1045 9.6553 94 8.55073 94H4.28223C3.17766 94 2.28223 93.1045 2.28223 92Z" fill="black"/>
<path fill-rule="evenodd" clip-rule="evenodd" d="M26.2688 100.876C26.2688 99.7712 27.1643 98.8757 28.2688 98.8757H36.5363C37.6408 98.8757 38.5363 99.7712 38.5363 100.876C38.5363 101.98 37.6408 102.876 36.5363 102.876H28.2688C27.1643 102.876 26.2688 101.98 26.2688 100.876Z" fill="black"/>
</svg>
