<svg width="150" height="150" viewBox="0 0 150 150" fill="none" xmlns="http://www.w3.org/2000/svg">
<path fill-rule="evenodd" clip-rule="evenodd" d="M18.3 35C17.582 35 17 35.582 17 36.3V112.7C17 113.418 17.582 114 18.3 114H98.5V77.3C98.5 76.582 99.082 76 99.8 76H134V36.3C134 35.582 133.418 35 132.7 35H18.3Z" fill="white"/>
<mask id="path-2-inside-1_3691_152815" fill="white">
<rect x="17" y="35" width="117" height="19" rx="1.3"/>
</mask>
<rect x="17" y="35" width="117" height="19" rx="1.3" fill="#F2F2F2" stroke="black" stroke-width="8" mask="url(#path-2-inside-1_3691_152815)"/>
<rect x="24" y="42" width="4" height="4" rx="2" fill="black"/>
<rect x="30" y="42" width="4" height="4" rx="2" fill="black"/>
<rect x="36" y="42" width="4" height="4" rx="2" fill="black"/>
<path d="M69 79.75C67.8954 79.75 67 80.6454 67 81.75C67 82.8546 67.8954 83.75 69 83.75V79.75ZM82.5 83.75C83.6046 83.75 84.5 82.8546 84.5 81.75C84.5 80.6454 83.6046 79.75 82.5 79.75V83.75ZM69 83.75H82.5V79.75H69V83.75Z" fill="black"/>
<path d="M73.75 88.5C73.75 89.6046 74.6454 90.5 75.75 90.5C76.8546 90.5 77.75 89.6046 77.75 88.5H73.75ZM77.75 75C77.75 73.8954 76.8546 73 75.75 73C74.6454 73 73.75 73.8954 73.75 75H77.75ZM77.75 88.5V75H73.75V88.5H77.75Z" fill="black"/>
<path fill-rule="evenodd" clip-rule="evenodd" d="M45.3 64C44.582 64 44 64.582 44 65.3V99.7C44 100.418 44.582 101 45.3 101H106.7C107.418 101 108 100.418 108 99.7V75.3055V65.3C108 64.582 107.418 64 106.7 64H45.3Z" fill="#F2F2F2"/>
<path d="M42 69.3133C42 70.4179 42.8954 71.3133 44 71.3133C45.1046 71.3133 46 70.4179 46 69.3133H42ZM46 78.4867C46 77.3821 45.1046 76.4867 44 76.4867C42.8954 76.4867 42 77.3821 42 78.4867H46ZM42 86.5133C42 87.6179 42.8954 88.5133 44 88.5133C45.1046 88.5133 46 87.6179 46 86.5133H42ZM46 95.6867C46 94.5821 45.1046 93.6867 44 93.6867C42.8954 93.6867 42 94.5821 42 95.6867H46ZM42.219 100.883C42.6151 101.914 43.7721 102.429 44.8032 102.033C45.8343 101.637 46.3491 100.48 45.953 99.4489L42.219 100.883ZM45.5511 99.047C44.52 98.6509 43.3631 99.1657 42.967 100.197C42.5709 101.228 43.0857 102.385 44.1168 102.781L45.5511 99.047ZM48.8817 103C49.9862 103 50.8817 102.105 50.8817 101C50.8817 99.8954 49.9862 99 48.8817 99V103ZM57.0683 99C55.9638 99 55.0683 99.8954 55.0683 101C55.0683 102.105 55.9638 103 57.0683 103V99ZM64.2317 103C65.3362 103 66.2317 102.105 66.2317 101C66.2317 99.8954 65.3362 99 64.2317 99V103ZM72.4183 99C71.3138 99 70.4183 99.8954 70.4183 101C70.4183 102.105 71.3138 103 72.4183 103V99ZM79.5817 103C80.6862 103 81.5817 102.105 81.5817 101C81.5817 99.8954 80.6862 99 79.5817 99V103ZM87.7683 99C86.6638 99 85.7683 99.8954 85.7683 101C85.7683 102.105 86.6638 103 87.7683 103V99ZM94.9317 103C96.0362 103 96.9317 102.105 96.9317 101C96.9317 99.8954 96.0362 99 94.9317 99V103ZM103.118 99C102.014 99 101.118 99.8954 101.118 101C101.118 102.105 102.014 103 103.118 103V99ZM107.883 102.781C108.914 102.385 109.429 101.228 109.033 100.197C108.637 99.1657 107.48 98.6509 106.449 99.047L107.883 102.781ZM106.047 99.4489C105.651 100.48 106.166 101.637 107.197 102.033C108.228 102.429 109.385 101.914 109.781 100.883L106.047 99.4489ZM110 96.854C110 95.7494 109.105 94.854 108 94.854C106.895 94.854 106 95.7494 106 96.854H110ZM106 90.3488C106 91.4534 106.895 92.3488 108 92.3488C109.105 92.3488 110 91.4534 110 90.3488H106ZM110 84.6568C110 83.5522 109.105 82.6568 108 82.6568C106.895 82.6568 106 83.5522 106 84.6568H110ZM106 78.1516C106 79.2561 106.895 80.1516 108 80.1516C109.105 80.1516 110 79.2561 110 78.1516H106ZM110 72.9709C110 71.8663 109.105 70.9709 108 70.9709C106.895 70.9709 106 71.8663 106 72.9709H110ZM106 67.6346C106 68.7392 106.895 69.6346 108 69.6346C109.105 69.6346 110 68.7392 110 67.6346H106ZM109.781 64.1168C109.385 63.0857 108.228 62.5709 107.197 62.967C106.166 63.3631 105.651 64.52 106.047 65.5511L109.781 64.1168ZM106.449 65.953C107.48 66.3491 108.637 65.8343 109.033 64.8032C109.429 63.7721 108.914 62.6151 107.883 62.219L106.449 65.953ZM103.118 62C102.014 62 101.118 62.8954 101.118 64C101.118 65.1046 102.014 66 103.118 66V62ZM94.9317 66C96.0362 66 96.9317 65.1046 96.9317 64C96.9317 62.8954 96.0362 62 94.9317 62V66ZM87.7683 62C86.6638 62 85.7683 62.8954 85.7683 64C85.7683 65.1046 86.6638 66 87.7683 66V62ZM79.5817 66C80.6862 66 81.5817 65.1046 81.5817 64C81.5817 62.8954 80.6862 62 79.5817 62V66ZM72.4183 62C71.3138 62 70.4183 62.8954 70.4183 64C70.4183 65.1046 71.3138 66 72.4183 66V62ZM64.2317 66C65.3362 66 66.2317 65.1046 66.2317 64C66.2317 62.8954 65.3362 62 64.2317 62V66ZM57.0683 62C55.9638 62 55.0683 62.8954 55.0683 64C55.0683 65.1046 55.9638 66 57.0683 66V62ZM48.8817 66C49.9862 66 50.8817 65.1046 50.8817 64C50.8817 62.8954 49.9862 62 48.8817 62V66ZM44.1168 62.219C43.0857 62.6151 42.5709 63.7721 42.967 64.8032C43.3631 65.8343 44.52 66.3491 45.5511 65.953L44.1168 62.219ZM45.953 65.5511C46.3491 64.52 45.8343 63.3631 44.8032 62.967C43.7721 62.5709 42.6151 63.0857 42.219 64.1168L45.953 65.5511ZM42 65.3V69.3133H46V65.3H42ZM42 78.4867V86.5133H46V78.4867H42ZM42 95.6867V99.7H46V95.6867H42ZM42 99.7C42 100.113 42.0769 100.513 42.219 100.883L45.953 99.4489C45.984 99.5295 46 99.6152 46 99.7H42ZM44.1168 102.781C44.4868 102.923 44.8867 103 45.3 103V99C45.3848 99 45.4705 99.016 45.5511 99.047L44.1168 102.781ZM45.3 103H48.8817V99H45.3V103ZM57.0683 103H64.2317V99H57.0683V103ZM72.4183 103H79.5817V99H72.4183V103ZM87.7683 103H94.9317V99H87.7683V103ZM103.118 103H106.7V99H103.118V103ZM106.7 103C107.113 103 107.513 102.923 107.883 102.781L106.449 99.047C106.529 99.016 106.615 99 106.7 99V103ZM109.781 100.883C109.923 100.513 110 100.113 110 99.7H106C106 99.6152 106.016 99.5295 106.047 99.4489L109.781 100.883ZM110 99.7V96.854H106V99.7H110ZM110 90.3488V84.6568H106V90.3488H110ZM110 78.1516V75.3055H106V78.1516H110ZM110 75.3055V72.9709H106V75.3055H110ZM110 67.6346V65.3H106V67.6346H110ZM110 65.3C110 64.8867 109.923 64.4868 109.781 64.1168L106.047 65.5511C106.016 65.4705 106 65.3848 106 65.3H110ZM107.883 62.219C107.513 62.0769 107.113 62 106.7 62V66C106.615 66 106.529 65.984 106.449 65.953L107.883 62.219ZM106.7 62H103.118V66H106.7V62ZM94.9317 62H87.7683V66H94.9317V62ZM79.5817 62H72.4183V66H79.5817V62ZM64.2317 62H57.0683V66H64.2317V62ZM48.8817 62H45.3V66H48.8817V62ZM45.3 62C44.8867 62 44.4868 62.0769 44.1168 62.219L45.5511 65.953C45.4705 65.984 45.3848 66 45.3 66V62ZM42.219 64.1168C42.0769 64.4868 42 64.8867 42 65.3H46C46 65.3848 45.984 65.4705 45.953 65.5511L42.219 64.1168Z" fill="black"/>
<rect x="103" y="81" width="41" height="41" rx="2" fill="white" stroke="black" stroke-width="4"/>
<path d="M114.816 94.6646L131.73 100.688L126.428 102.406C126.427 102.406 126.426 102.406 126.425 102.407C125.791 102.61 125.202 102.946 124.707 103.401C124.21 103.856 123.818 104.421 123.574 105.06L123.574 105.061L121.513 110.462L114.816 94.6646Z" fill="black" stroke="black" stroke-width="4"/>
<path d="M19 53V112.7C19 113.418 19.582 114 20.3 114H97" stroke="black" stroke-width="4" stroke-linecap="square"/>
<path d="M132 53V74" stroke="black" stroke-width="4" stroke-linecap="square"/>
<path d="M67 82H84" stroke="black" stroke-width="4" stroke-linecap="round"/>
<path d="M75 90V74" stroke="black" stroke-width="4" stroke-linecap="round"/>
</svg>
