<svg width="250" height="200" viewBox="0 0 250 200" fill="none" xmlns="http://www.w3.org/2000/svg">
<path opacity="0.69" fill-rule="evenodd" clip-rule="evenodd" d="M70.8472 135H187.126C190.979 135 194.103 131.866 194.103 128C194.103 124.134 190.979 121 187.126 121C187.126 121 181.146 117.866 181.146 114C181.146 110.134 185.085 107 189.943 107H200.083C203.936 107 207.06 103.866 207.06 100C207.06 96.134 203.936 93 200.083 93H178.156C182.009 93 185.133 89.866 185.133 86C185.133 82.134 182.009 79 178.156 79H218.023C221.876 79 225 75.866 225 72C225 68.134 221.876 65 218.023 65H86.794C82.9409 65 79.8173 68.134 79.8173 72C79.8173 75.866 82.9409 79 86.794 79H46.9269C43.0738 79 39.9502 82.134 39.9502 86C39.9502 89.866 43.0738 93 46.9269 93H71.8439C75.697 93 78.8206 96.134 78.8206 100C78.8206 103.866 75.697 107 71.8439 107H31.9767C28.1236 107 25 110.134 25 114C25 117.866 28.1236 121 31.9767 121H70.8472C66.994 121 63.8704 124.134 63.8704 128C63.8704 131.866 66.994 135 70.8472 135ZM210 100C210 103.866 213.134 107 217 107C220.866 107 224 103.866 224 100C224 96.1341 220.866 93.0001 217 93.0001C213.134 93.0001 210 96.1341 210 100Z" fill="#D1D1D1"/>
<path fill-rule="evenodd" clip-rule="evenodd" d="M154.588 141.729C157.869 139.617 160.786 136.983 162.684 134.856L154.588 141.729ZM165.747 131.321C167.317 129.398 168.728 127.387 169.98 125.306C172.734 120.728 174.72 115.81 175.933 110.74C177.16 105.612 177.598 100.328 177.243 95.0822C176.933 90.505 176.019 85.957 174.5 81.5676C172.994 77.2128 170.891 73.014 168.19 69.0974C166.58 66.7635 164.758 64.5299 162.724 62.4231C159.737 59.3299 156.461 56.6855 152.979 54.4915C149.239 52.1342 145.262 50.2968 141.153 48.9814C136.008 47.334 130.656 46.5053 125.303 46.4993C121.138 46.4946 116.972 46.988 112.903 47.9812C108.322 49.0993 103.864 50.851 99.6657 53.2389C95.9753 55.338 92.4862 57.9288 89.2925 61.0129C85.2789 64.8888 82.0279 69.2579 79.5423 73.9338C77.1087 78.5117 75.4089 83.3836 74.4456 88.3746C73.453 93.5166 73.2422 98.785 73.816 103.988C74.5598 110.733 76.6219 117.368 80.0087 123.477C82.1758 127.386 84.8853 131.08 88.139 134.449C93.3042 139.798 99.3346 143.804 105.793 146.461C113.648 149.692 122.136 150.925 130.472 150.147C137.468 149.493 144.357 147.423 150.675 143.926" fill="white"/>
<path d="M154.588 141.729L153.617 140.585L155.399 142.99L154.588 141.729ZM162.684 134.856L163.804 135.854L161.714 133.712L162.684 134.856ZM164.585 130.373C164.061 131.014 164.157 131.959 164.798 132.483C165.44 133.007 166.385 132.912 166.909 132.27L164.585 130.373ZM169.98 125.306L168.695 124.533L169.98 125.306ZM175.933 110.74L177.392 111.089L175.933 110.74ZM177.243 95.0822L175.746 95.1835L177.243 95.0822ZM174.5 81.5676L173.083 82.0581L174.5 81.5676ZM168.19 69.0974L169.425 68.2459L169.425 68.2459L168.19 69.0974ZM152.979 54.4915L152.18 55.7605L152.18 55.7605L152.979 54.4915ZM141.153 48.9814L140.696 50.4099L140.696 50.4099L141.153 48.9814ZM125.303 46.4993L125.304 44.9993L125.303 46.4993ZM112.903 47.9812L112.548 46.5239L112.548 46.5239L112.903 47.9812ZM99.6657 53.2389L100.407 54.5427L100.407 54.5427L99.6657 53.2389ZM89.2925 61.0129L90.3345 62.092L89.2925 61.0129ZM79.5423 73.9338L80.8668 74.6378L79.5423 73.9338ZM74.4456 88.3746L72.9727 88.0903L72.9727 88.0903L74.4456 88.3746ZM73.816 103.988L75.307 103.824L73.816 103.988ZM80.0087 123.477L81.3206 122.75L81.3206 122.75L80.0087 123.477ZM88.139 134.449L89.218 133.407L88.139 134.449ZM105.793 146.461L105.223 147.848L105.223 147.848L105.793 146.461ZM130.472 150.147L130.332 148.653L130.472 150.147ZM151.402 145.238C152.126 144.837 152.389 143.924 151.988 143.2C151.587 142.475 150.674 142.212 149.949 142.614L151.402 145.238ZM155.399 142.99C158.803 140.8 161.822 138.075 163.804 135.854L161.565 133.857C159.75 135.891 156.935 138.434 153.776 140.467L155.399 142.99ZM161.714 133.712L153.617 140.585L155.558 142.872L163.655 135.999L161.714 133.712ZM166.909 132.27C168.524 130.291 169.977 128.222 171.266 126.079L168.695 124.533C167.479 126.553 166.109 128.506 164.585 130.373L166.909 132.27ZM171.266 126.079C174.1 121.368 176.143 116.306 177.392 111.089L174.474 110.391C173.296 115.315 171.368 120.089 168.695 124.533L171.266 126.079ZM177.392 111.089C178.654 105.813 179.104 100.377 178.739 94.9809L175.746 95.1835C176.091 100.279 175.666 105.411 174.474 110.391L177.392 111.089ZM178.739 94.9809C178.42 90.2724 177.481 85.5935 175.918 81.0771L173.083 82.0581C174.558 86.3206 175.445 90.7376 175.746 95.1835L178.739 94.9809ZM175.918 81.0771C174.367 76.5962 172.203 72.2757 169.425 68.2459L166.955 69.949C169.578 73.7524 171.62 77.8295 173.083 82.0581L175.918 81.0771ZM169.425 68.2459C167.769 65.8446 165.895 63.5472 163.803 61.3811L161.645 63.465C163.622 65.5125 165.392 67.6825 166.955 69.949L169.425 68.2459ZM163.803 61.3811C160.732 58.2006 157.361 55.4802 153.779 53.2225L152.18 55.7605C155.56 57.8908 158.742 60.4591 161.645 63.465L163.803 61.3811ZM153.779 53.2225C149.93 50.7968 145.838 48.9062 141.611 47.5528L140.696 50.4099C144.686 51.6873 148.548 53.4715 152.18 55.7605L153.779 53.2225ZM141.611 47.5528C136.317 45.8579 130.811 45.0055 125.304 44.9993L125.301 47.9993C130.5 48.0052 135.699 48.8101 140.696 50.4099L141.611 47.5528ZM125.304 44.9993C121.02 44.9945 116.734 45.502 112.548 46.5239L113.259 49.4384C117.21 48.4739 121.255 47.9948 125.301 47.9993L125.304 44.9993ZM112.548 46.5239C107.834 47.6745 103.245 49.4772 98.924 51.9351L100.407 54.5427C104.482 52.2248 108.811 50.5241 113.259 49.4384L112.548 46.5239ZM98.924 51.9351C95.1255 54.0957 91.5353 56.7618 88.2505 59.9339L90.3345 62.092C93.4371 59.0957 96.8251 56.5803 100.407 54.5427L98.924 51.9351ZM88.2505 59.9339C84.1223 63.9205 80.7764 68.4165 78.2178 73.2297L80.8668 74.6378C83.2794 70.0993 86.4356 65.8571 90.3345 62.092L88.2505 59.9339ZM78.2178 73.2297C75.713 77.9416 73.9639 82.9553 72.9727 88.0903L75.9184 88.6589C76.8539 83.8119 78.5045 79.0817 80.8668 74.6378L78.2178 73.2297ZM72.9727 88.0903C71.9516 93.3805 71.7348 98.8002 72.3251 104.153L75.307 103.824C74.7496 98.7698 74.9544 93.6527 75.9184 88.6589L72.9727 88.0903ZM72.3251 104.153C73.0902 111.091 75.2116 117.918 78.6968 124.204L81.3206 122.75C78.0321 116.818 76.0294 110.375 75.307 103.824L72.3251 104.153ZM78.6968 124.204C80.9269 128.227 83.7145 132.027 87.06 135.491L89.218 133.407C86.0562 130.133 83.4247 126.545 81.3206 122.75L78.6968 124.204ZM87.06 135.491C92.3717 140.991 98.5761 145.114 105.223 147.848L106.364 145.074C100.093 142.495 94.2368 138.604 89.218 133.407L87.06 135.491ZM105.223 147.848C113.304 151.172 122.036 152.441 130.611 151.64L130.332 148.653C122.235 149.409 113.991 148.211 106.364 145.074L105.223 147.848ZM130.611 151.64C137.809 150.968 144.899 148.838 151.402 145.238L149.949 142.614C143.816 146.008 137.127 148.019 130.332 148.653L130.611 151.64Z" fill="#333333"/>
<path d="M122.193 119.355C122.193 121.012 123.536 122.355 125.193 122.355C126.85 122.355 128.193 121.012 128.193 119.355L128.193 103.394L144.952 103.394C146.609 103.394 147.952 102.051 147.952 100.394C147.952 98.7374 146.609 97.3942 144.952 97.3942L128.193 97.3942L128.193 79.0447C128.193 77.3879 126.85 76.0447 125.193 76.0447C123.536 76.0447 122.193 77.3879 122.193 79.0447L122.193 97.3942H104.642C102.985 97.3942 101.642 98.7374 101.642 100.394C101.642 102.051 102.985 103.394 104.642 103.394L122.193 103.394V119.355Z" fill="#333333"/>
<path d="M170.5 38V44" stroke="#333333" stroke-width="2.5" stroke-linecap="round" stroke-linejoin="round"/>
<path d="M170.5 52V58" stroke="#333333" stroke-width="2.5" stroke-linecap="round" stroke-linejoin="round"/>
<path d="M160.5 48H166.5" stroke="#333333" stroke-width="2.5" stroke-linecap="round" stroke-linejoin="round"/>
<path d="M174.5 48H180.5" stroke="#333333" stroke-width="2.5" stroke-linecap="round" stroke-linejoin="round"/>
<path d="M87.5 141V145" stroke="#333333" stroke-width="2.5" stroke-linecap="round" stroke-linejoin="round"/>
<path d="M87.5 153V157" stroke="#333333" stroke-width="2.5" stroke-linecap="round" stroke-linejoin="round"/>
<path d="M79.5 149H83.5" stroke="#333333" stroke-width="2.5" stroke-linecap="round" stroke-linejoin="round"/>
<path d="M91.5 149H95.5" stroke="#333333" stroke-width="2.5" stroke-linecap="round" stroke-linejoin="round"/>
<path fill-rule="evenodd" clip-rule="evenodd" d="M109.183 55.7009C107.144 56.4658 105.153 57.3952 103.229 58.4896C100.239 60.1902 97.4123 62.289 94.8249 64.7877C93.7642 65.8119 92.7693 66.8786 91.8403 67.9827M88.9654 71.8265C88.2266 72.9429 87.5467 74.0873 86.9258 75.2554C86.4672 76.1181 86.0408 76.9936 85.6465 77.8803" fill="white"/>
<path d="M109.622 56.8712C110.268 56.6287 110.596 55.9082 110.353 55.2618C110.111 54.6155 109.39 54.2881 108.744 54.5305L109.622 56.8712ZM103.229 58.4896L103.847 59.5761L103.229 58.4896ZM94.8249 64.7877L93.9565 63.8885L94.8249 64.7877ZM90.8839 67.1778C90.4394 67.706 90.5072 68.4946 91.0354 68.9391C91.5636 69.3836 92.3522 69.3157 92.7967 68.7875L90.8839 67.1778ZM90.0078 72.5164C90.3888 71.9407 90.2309 71.1651 89.6552 70.7841C89.0795 70.4031 88.3039 70.561 87.9229 71.1367L90.0078 72.5164ZM86.9258 75.2554L88.0295 75.8421L86.9258 75.2554ZM84.5044 77.3725C84.2239 78.0033 84.5079 78.742 85.1387 79.0225C85.7695 79.303 86.5083 79.019 86.7887 78.3882L84.5044 77.3725ZM108.744 54.5305C106.644 55.3184 104.592 56.2757 102.611 57.403L103.847 59.5761C105.713 58.5147 107.644 57.6132 109.622 56.8712L108.744 54.5305ZM102.611 57.403C99.5307 59.1549 96.6199 61.3166 93.9565 63.8885L95.6932 65.6868C98.2047 63.2615 100.947 61.2254 103.847 59.5761L102.611 57.403ZM93.9565 63.8885C92.8649 64.9427 91.8406 66.0409 90.8839 67.1778L92.7967 68.7875C93.6981 67.7164 94.6636 66.6811 95.6932 65.6868L93.9565 63.8885ZM87.9229 71.1367C87.162 72.2866 86.4616 73.4655 85.8221 74.6687L88.0295 75.8421C88.6318 74.7092 89.2912 73.5992 90.0078 72.5164L87.9229 71.1367ZM85.8221 74.6687C85.3497 75.5573 84.9104 76.4592 84.5044 77.3725L86.7887 78.3882C87.1711 77.5281 87.5847 76.6788 88.0295 75.8421L85.8221 74.6687Z" fill="#333333"/>
</svg>
