<svg width="167" height="108" viewBox="0 0 167 108" fill="none" xmlns="http://www.w3.org/2000/svg">
<path fill-rule="evenodd" clip-rule="evenodd" d="M46 90H129C132.866 90 136 86.866 136 83C136 79.134 132.866 76 129 76C129 76 123 72.866 123 69C123 65.134 126.952 62 131.826 62H142C145.866 62 149 58.866 149 55C149 51.134 145.866 48 142 48H120C123.866 48 127 44.866 127 41C127 37.134 123.866 34 120 34H160C163.866 34 167 30.866 167 27C167 23.134 163.866 20 160 20H62C58.134 20 55 23.134 55 27C55 30.866 58.134 34 62 34H22C18.134 34 15 37.134 15 41C15 44.866 18.134 48 22 48H47C50.866 48 54 51.134 54 55C54 58.866 50.866 62 47 62H7C3.13401 62 0 65.134 0 69C0 72.866 3.13401 76 7 76H46C42.134 76 39 79.134 39 83C39 86.866 42.134 90 46 90ZM153 55C153 58.866 156.134 62 160 62C163.866 62 167 58.866 167 55C167 51.134 163.866 48 160 48C156.134 48 153 51.134 153 55Z" fill="#EBEBEB"/>
<path d="M61.4491 63.1324L69.3399 55.6173L84.3702 41.7142L91.1338 34.1991C89.1298 32.0698 82.266 25.181 70.843 14.6599C59.42 4.1387 47.2956 10.276 42.6613 14.6599C36.6492 17.9665 36.8997 32.0699 37.7764 38.7083L61.4491 63.1324Z" fill="#F2F2F2"/>
<path d="M104.898 48.103L96.819 55.416L81.4416 68.9342L74.4899 76.2757C76.4394 78.455 83.1266 85.5153 94.2797 96.3223C105.433 107.129 117.709 101.301 122.452 97.0356C128.546 93.8822 128.653 79.777 127.944 73.1186L104.898 48.103Z" fill="#F2F2F2"/>
<path d="M68.9177 56.3288L62.4055 62.841C62.0401 63.2064 61.4476 63.2064 61.0822 62.841L42.8792 44.638C34.6616 36.4204 34.6616 23.0972 42.8792 14.8796V14.8796C51.0967 6.66206 64.42 6.66207 72.6375 14.8796L90.8406 33.0826C91.206 33.4481 91.206 34.0405 90.8406 34.4059L83.7969 41.4496" stroke="black" stroke-width="4" stroke-linecap="round"/>
<path d="M107.711 30.8213L119.933 18.5991" stroke="black" stroke-width="4" stroke-linecap="round"/>
<path d="M96.377 22.6748L100.707 5.94124" stroke="black" stroke-width="4" stroke-linecap="round"/>
<path d="M115.682 41.9805L132.415 37.6502" stroke="black" stroke-width="4" stroke-linecap="round"/>
<path d="M58.8223 79.71L46.6001 91.9321" stroke="black" stroke-width="4" stroke-linecap="round"/>
<path d="M50.6758 68.376L33.9422 72.7063" stroke="black" stroke-width="4" stroke-linecap="round"/>
<path d="M69.9805 87.6807L65.6502 104.414" stroke="black" stroke-width="4" stroke-linecap="round"/>
<path fill-rule="evenodd" clip-rule="evenodd" d="M117.516 101.341C109.073 105.05 98.8607 103.447 91.9477 96.5344L73.7446 78.3314C72.5982 77.1849 72.5981 75.3262 73.7446 74.1797L80.2569 67.6674C81.0379 66.8864 82.3042 66.8864 83.0853 67.6674C83.8663 68.4485 83.8663 69.7148 83.0853 70.4959L77.3256 76.2555L94.7761 93.706C100.309 99.2392 108.4 100.655 115.243 97.9545C115.911 99.1457 116.672 100.278 117.516 101.341ZM124.278 63.6911L106.331 45.7446C105.185 44.5981 103.326 44.5981 102.18 45.7446L95.136 52.7883C94.355 53.5693 94.355 54.8356 95.136 55.6167C95.9171 56.3977 97.1834 56.3977 97.9645 55.6167L104.256 49.3256L120.993 66.0629C122.021 65.189 123.119 64.3952 124.278 63.6911Z" fill="black"/>
<circle cx="135" cy="86" r="17" fill="white" stroke="black" stroke-width="4"/>
<path d="M129.992 80.9619L139.508 90.5381" stroke="black" stroke-width="4" stroke-linecap="round"/>
<path d="M129.961 90.5078L139.537 80.9922" stroke="black" stroke-width="4" stroke-linecap="round"/>
</svg>
