<svg width="250" height="200" viewBox="0 0 250 200" fill="none" xmlns="http://www.w3.org/2000/svg">
<path fill-rule="evenodd" clip-rule="evenodd" d="M70.8472 135H187.126C190.979 135 194.103 131.866 194.103 128C194.103 124.134 190.979 121 187.126 121C187.126 121 181.146 117.866 181.146 114C181.146 110.134 185.085 107 189.943 107H200.083C203.936 107 207.06 103.866 207.06 100C207.06 96.134 203.936 93 200.083 93H178.156C182.009 93 185.133 89.866 185.133 86C185.133 82.134 182.009 79 178.156 79H218.023C221.876 79 225 75.866 225 72C225 68.134 221.876 65 218.023 65H86.794C82.9409 65 79.8173 68.134 79.8173 72C79.8173 75.866 82.9409 79 86.794 79H46.9269C43.0738 79 39.9502 82.134 39.9502 86C39.9502 89.866 43.0738 93 46.9269 93H71.8439C75.697 93 78.8206 96.134 78.8206 100C78.8206 103.866 75.697 107 71.8439 107H31.9767C28.1236 107 25 110.134 25 114C25 117.866 28.1236 121 31.9767 121H70.8472C66.994 121 63.8704 124.134 63.8704 128C63.8704 131.866 66.994 135 70.8472 135ZM210 100C210 103.866 213.134 107 217 107C220.866 107 224 103.866 224 100C224 96.1341 220.866 93.0001 217 93.0001C213.134 93.0001 210 96.1341 210 100Z" fill="#EBEBEB"/>
<rect x="68.5" y="61.5" width="114" height="76" rx="2.5" fill="white" stroke="black" stroke-width="3"/>
<path d="M68.5 64C68.5 62.6193 69.6193 61.5 71 61.5H180C181.381 61.5 182.5 62.6193 182.5 64V76.5H68.5V64Z" fill="#F2F2F2" stroke="black" stroke-width="3"/>
<circle cx="109" cy="95" r="4" fill="black"/>
<circle cx="141" cy="95" r="4" fill="black"/>
<rect x="118" y="109" width="16" height="6" rx="3" fill="black"/>
<rect x="75" y="67" width="4" height="4" rx="2" fill="black"/>
<rect x="81" y="67" width="4" height="4" rx="2" fill="black"/>
<rect x="87" y="67" width="4" height="4" rx="2" fill="black"/>
<path d="M55.8075 112.011H38.4392" stroke="black" stroke-width="4" stroke-linecap="round" stroke-linejoin="round"/>
<path d="M32.5504 112.011H28.2819" stroke="black" stroke-width="4" stroke-linecap="round" stroke-linejoin="round"/>
<path d="M60.537 120.886H52.2695" stroke="black" stroke-width="4" stroke-linecap="round" stroke-linejoin="round"/>
<path d="M179 53C179 54.1046 179.895 55 181 55C182.105 55 183 54.1046 183 53H179ZM183 37C183 35.8954 182.105 35 181 35C179.895 35 179 35.8954 179 37H183ZM183 53V37H179V53H183Z" fill="black"/>
<path d="M192.384 54.4396C191.629 55.245 191.669 56.5107 192.474 57.2666C193.279 58.0226 194.545 57.9826 195.301 57.1772L192.384 54.4396ZM206.251 45.5114C207.007 44.706 206.967 43.4403 206.162 42.6843C205.356 41.9284 204.091 41.9684 203.335 42.7738L206.251 45.5114ZM195.301 57.1772L206.251 45.5114L203.335 42.7738L192.384 54.4396L195.301 57.1772Z" fill="black"/>
<path d="M211 71C212.105 71 213 70.1046 213 69C213 67.8954 212.105 67 211 67V71ZM195 67C193.895 67 193 67.8954 193 69C193 70.1046 193.895 71 195 71V67ZM211 67H195V71H211V67Z" fill="black"/>
</svg>
