<svg width="170" height="152" viewBox="0 0 170 152" fill="none" xmlns="http://www.w3.org/2000/svg">
<g clip-path="url(#clip0_51160_346704)">
<g opacity="0.9">
<path opacity="0.9" d="M87.0626 0.331546L81.5311 1.75264L13.3819 19.2608L7.85041 20.6819C5.16548 21.3749 2.86612 23.1006 1.45678 25.4805C0.0474401 27.8603 -0.356784 30.6999 0.33279 33.3763L24.3186 126.038C25.0142 128.713 26.7464 131.003 29.1353 132.407C31.5241 133.811 34.3744 134.214 37.0609 133.527L37.0752 133.523L116.259 113.18L116.273 113.177C118.958 112.484 121.257 110.758 122.667 108.378C124.076 105.998 124.48 103.159 123.791 100.482L99.8049 7.82093C99.1093 5.1461 97.3771 2.85538 94.9883 1.45133C92.5994 0.0472847 89.7491 -0.355429 87.0626 0.331546Z" fill="#D1D1D1"/>
<path opacity="0.9" d="M87.8137 3.23721L81.262 4.9204L15.153 21.9044L8.60138 23.5876C6.68937 24.0811 5.05194 25.31 4.04831 27.0047C3.04468 28.6995 2.75681 30.7216 3.24788 32.6275L27.2337 125.289C27.729 127.194 28.9626 128.826 30.6637 129.825C32.3649 130.825 34.3946 131.112 36.3078 130.623L36.322 130.619L115.506 110.276L115.52 110.272C117.432 109.779 119.069 108.55 120.073 106.855C121.077 105.161 121.364 103.138 120.873 101.232L96.8876 8.57058C96.3923 6.66579 95.1587 5.03452 93.4576 4.03467C91.7565 3.03481 89.7267 2.74802 87.8137 3.23721Z" fill="white"/>
<path opacity="0.9" d="M82.867 33.2429L42.8099 43.5339C42.3625 43.6489 41.8876 43.5821 41.4897 43.3482C41.0918 43.1143 40.8034 42.7325 40.688 42.2868C40.5726 41.841 40.6397 41.3679 40.8745 40.9715C41.1093 40.575 41.4925 40.2878 41.9399 40.1728L81.9969 29.8818C82.4442 29.7673 82.9188 29.8344 83.3164 30.0683C83.714 30.3022 84.0021 30.6839 84.1174 31.1293C84.2327 31.5748 84.1658 32.0476 83.9313 32.4439C83.6968 32.8402 83.314 33.1276 82.867 33.2429Z" fill="#D1D1D1"/>
<path opacity="0.9" d="M91.2943 37.1271L44.2787 49.2058C43.8313 49.3208 43.3564 49.2539 42.9584 49.02C42.5605 48.7862 42.2721 48.4044 42.1568 47.9586C42.0414 47.5129 42.1085 47.0398 42.3432 46.6434C42.578 46.2469 42.9612 45.9596 43.4086 45.8447L90.4242 33.7659C90.8716 33.651 91.3465 33.7178 91.7445 33.9517C92.1424 34.1856 92.4308 34.5674 92.5462 35.0131C92.6615 35.4588 92.5945 35.9319 92.3597 36.3284C92.1249 36.7248 91.7417 37.0121 91.2943 37.1271Z" fill="#D1D1D1"/>
<path opacity="0.9" d="M89.4471 58.6613L49.39 68.9523C49.1685 69.0093 48.9379 69.0221 48.7113 68.9903C48.4848 68.9584 48.2668 68.8824 48.0698 68.7666C47.8727 68.6508 47.7005 68.4974 47.563 68.3153C47.4254 68.1332 47.3252 67.9259 47.2681 67.7052C47.211 67.4845 47.198 67.2547 47.23 67.029C47.262 66.8034 47.3383 66.5862 47.4546 66.3899C47.5708 66.1936 47.7247 66.022 47.9075 65.885C48.0903 65.7479 48.2984 65.6481 48.52 65.5912L88.5771 55.3001C88.7986 55.2432 89.0292 55.2303 89.2557 55.2622C89.4823 55.2941 89.7003 55.3701 89.8973 55.4859C90.0943 55.6017 90.2666 55.7551 90.4041 55.9372C90.5417 56.1193 90.6419 56.3266 90.699 56.5473C90.7561 56.768 90.7691 56.9978 90.7371 57.2234C90.7051 57.4491 90.6288 57.6663 90.5125 57.8626C90.3963 58.0589 90.2424 58.2305 90.0595 58.3675C89.8767 58.5045 89.6686 58.6044 89.4471 58.6613Z" fill="#D1D1D1"/>
<path opacity="0.9" d="M97.8744 62.546L50.8588 74.6248C50.6372 74.6817 50.4066 74.6946 50.1801 74.6627C49.9536 74.6308 49.7356 74.5548 49.5385 74.439C49.3415 74.3232 49.1693 74.1698 49.0317 73.9877C48.8942 73.8056 48.794 73.5983 48.7368 73.3776C48.6797 73.1569 48.6668 72.9272 48.6988 72.7015C48.7308 72.4758 48.8071 72.2586 48.9233 72.0623C49.0396 71.866 49.1935 71.6945 49.3763 71.5574C49.5591 71.4204 49.7672 71.3206 49.9887 71.2637L97.0043 59.1849C97.4517 59.0699 97.9266 59.1368 98.3246 59.3707C98.7225 59.6045 99.0109 59.9864 99.1262 60.4321C99.2416 60.8778 99.1745 61.3509 98.9398 61.7473C98.705 62.1438 98.3217 62.4311 97.8744 62.546Z" fill="#D1D1D1"/>
<path opacity="0.9" d="M96.026 84.0801L55.9689 94.3712C55.5217 94.4858 55.047 94.4188 54.6493 94.1848C54.2517 93.9509 53.9635 93.5692 53.8482 93.1237C53.7328 92.6782 53.7998 92.2053 54.0343 91.809C54.2689 91.4126 54.6518 91.1253 55.0989 91.0101L95.156 80.719C95.6034 80.6041 96.0783 80.6709 96.4762 80.9048C96.8741 81.1387 97.1625 81.5205 97.2779 81.9662C97.3933 82.4119 97.3262 82.885 97.0914 83.2815C96.8566 83.6779 96.4734 83.9652 96.026 84.0801Z" fill="#D1D1D1"/>
<path opacity="0.9" d="M104.454 87.9649L57.4384 100.044C57.2168 100.101 56.986 100.114 56.7594 100.082C56.5327 100.051 56.3145 99.9745 56.1173 99.8587C55.9201 99.7429 55.7477 99.5895 55.6101 99.4073C55.4724 99.2252 55.3721 99.0177 55.315 98.7969C55.2578 98.5761 55.2449 98.3462 55.2769 98.1204C55.309 97.8946 55.3854 97.6773 55.5018 97.481C55.6182 97.2846 55.7723 97.113 55.9553 96.976C56.1383 96.839 56.3466 96.7393 56.5683 96.6826L103.584 84.6038C104.031 84.4888 104.506 84.5557 104.904 84.7896C105.302 85.0235 105.591 85.4053 105.706 85.851C105.821 86.2967 105.754 86.7698 105.519 87.1662C105.285 87.5627 104.901 87.85 104.454 87.9649Z" fill="#D1D1D1"/>
<path opacity="0.9" d="M35.9716 54.0858L21.7958 57.7277C21.5813 57.7826 21.3537 57.7504 21.163 57.6383C20.9722 57.5262 20.8339 57.3433 20.7784 57.1297L17.5243 44.5587C17.4692 44.345 17.5015 44.1182 17.6141 43.9282C17.7266 43.7382 17.9102 43.6004 18.1246 43.545L32.3004 39.9031C32.5149 39.8483 32.7425 39.8804 32.9333 39.9925C33.124 40.1046 33.2623 40.2876 33.3179 40.5011L36.5719 53.0721C36.627 53.2859 36.5947 53.5126 36.4822 53.7026C36.3696 53.8927 36.186 54.0305 35.9716 54.0858Z" fill="#D1D1D1"/>
<path opacity="0.9" d="M42.5517 79.5047L28.3759 83.1466C28.1614 83.2014 27.9338 83.1693 27.743 83.0572C27.5523 82.945 27.414 82.7621 27.3584 82.5485L24.1044 69.9776C24.0493 69.7639 24.0816 69.5371 24.1941 69.3471C24.3067 69.1571 24.4903 69.0193 24.7047 68.9639L38.8805 65.322C39.095 65.2672 39.3226 65.2993 39.5133 65.4114C39.7041 65.5235 39.8424 65.7065 39.8979 65.92L43.152 78.491C43.2071 78.7047 43.1748 78.9315 43.0622 79.1215C42.9497 79.3115 42.7661 79.4493 42.5517 79.5047Z" fill="#D1D1D1"/>
<path opacity="0.9" d="M49.1318 104.924L34.956 108.566C34.7415 108.621 34.5139 108.589 34.3231 108.476C34.1324 108.364 33.9941 108.181 33.9385 107.968L30.6845 95.3965C30.6294 95.1828 30.6617 94.9561 30.7742 94.7661C30.8867 94.576 31.0704 94.4382 31.2847 94.3829L45.4606 90.741C45.6751 90.6861 45.9027 90.7183 46.0934 90.8304C46.2842 90.9425 46.4225 91.1254 46.478 91.339L49.7321 103.91C49.7872 104.124 49.7549 104.351 49.6423 104.541C49.5298 104.731 49.3462 104.869 49.1318 104.924Z" fill="#D1D1D1"/>
<path opacity="0.9" d="M142.31 23.8203H60.5063C57.7327 23.8234 55.0736 24.9225 53.1124 26.8763C51.1512 28.8301 50.048 31.4792 50.0449 34.2424V129.936C50.048 132.699 51.1512 135.348 53.1124 137.302C55.0736 139.256 57.7327 140.355 60.5063 140.358H142.31C145.084 140.355 147.743 139.256 149.704 137.302C151.665 135.348 152.768 132.699 152.771 129.936V34.2424C152.768 31.4792 151.665 28.8301 149.704 26.8763C147.743 24.9225 145.084 23.8234 142.31 23.8203Z" fill="#D1D1D1"/>
<path opacity="0.9" d="M142.308 26.8203H60.5045C58.5294 26.8225 56.6358 27.6052 55.2391 28.9965C53.8425 30.3879 53.0569 32.2744 53.0547 34.2421V129.935C53.0569 131.903 53.8425 133.789 55.2391 135.181C56.6358 136.572 58.5294 137.355 60.5045 137.357H142.308C144.283 137.355 146.177 136.572 147.574 135.181C148.97 133.789 149.756 131.903 149.758 129.935V34.2421C149.756 32.2744 148.97 30.3879 147.574 28.9966C146.177 27.6052 144.283 26.8225 142.308 26.8203Z" fill="white"/>
<path d="M150.903 152C161.45 152 170 143.482 170 132.975C170 122.468 161.45 113.95 150.903 113.95C140.357 113.95 131.807 122.468 131.807 132.975C131.807 143.482 140.357 152 150.903 152Z" fill="#333333"/>
<path opacity="0.9" d="M160.037 130.494H153.394V123.877C153.394 123.219 153.132 122.588 152.665 122.122C152.198 121.657 151.564 121.396 150.903 121.396C150.243 121.396 149.609 121.657 149.142 122.122C148.675 122.588 148.413 123.219 148.413 123.877V130.494H141.77C141.11 130.494 140.476 130.756 140.009 131.221C139.542 131.687 139.279 132.318 139.279 132.976C139.279 133.634 139.542 134.265 140.009 134.731C140.476 135.196 141.11 135.457 141.77 135.457H148.413V142.075C148.413 142.733 148.675 143.364 149.142 143.83C149.609 144.295 150.243 144.556 150.903 144.556C151.564 144.556 152.198 144.295 152.665 143.83C153.132 143.364 153.394 142.733 153.394 142.075V135.457H160.037C160.697 135.457 161.331 135.196 161.798 134.731C162.265 134.265 162.528 133.634 162.528 132.976C162.528 132.318 162.265 131.687 161.798 131.221C161.331 130.756 160.697 130.494 160.037 130.494Z" fill="white"/>
<path opacity="0.9" d="M129.998 79.4037H88.6308C88.4018 79.4039 88.1751 79.3592 87.9635 79.2721C87.7519 79.185 87.5596 79.0572 87.3977 78.896C87.2357 78.7348 87.1072 78.5434 87.0195 78.3327C86.9318 78.122 86.8867 77.8962 86.8867 77.6681C86.8867 77.44 86.9318 77.2142 87.0195 77.0035C87.1072 76.7928 87.2357 76.6014 87.3977 76.4402C87.5596 76.279 87.7519 76.1512 87.9635 76.0641C88.1751 75.977 88.4018 75.9323 88.6308 75.9326H129.998C130.46 75.9331 130.903 76.1162 131.229 76.4416C131.555 76.767 131.738 77.2082 131.738 77.6681C131.738 78.1281 131.555 78.5692 131.229 78.8947C130.903 79.2201 130.46 79.4032 129.998 79.4037Z" fill="#D1D1D1"/>
<path opacity="0.9" d="M137.184 85.2611H88.6308C88.4018 85.2613 88.1751 85.2166 87.9635 85.1295C87.7519 85.0424 87.5596 84.9146 87.3977 84.7534C87.2357 84.5922 87.1072 84.4008 87.0195 84.1901C86.9318 83.9794 86.8867 83.7536 86.8867 83.5255C86.8867 83.2975 86.9318 83.0716 87.0195 82.8609C87.1072 82.6502 87.2357 82.4588 87.3977 82.2976C87.5596 82.1364 87.7519 82.0087 87.9635 81.9215C88.1751 81.8344 88.4018 81.7897 88.6308 81.79H137.184C137.647 81.79 138.09 81.9728 138.416 82.2983C138.743 82.6238 138.927 83.0652 138.927 83.5255C138.927 83.9858 138.743 84.4273 138.416 84.7527C138.09 85.0782 137.647 85.2611 137.184 85.2611Z" fill="#D1D1D1"/>
<path opacity="0.9" d="M129.998 105.654H88.6308C88.4018 105.655 88.1751 105.61 87.9635 105.523C87.7519 105.436 87.5596 105.308 87.3977 105.147C87.2357 104.986 87.1072 104.794 87.0195 104.584C86.9318 104.373 86.8867 104.147 86.8867 103.919C86.8867 103.691 86.9318 103.465 87.0195 103.254C87.1072 103.044 87.2357 102.852 87.3977 102.691C87.5596 102.53 87.7519 102.402 87.9635 102.315C88.1751 102.228 88.4018 102.183 88.6308 102.183H129.998C130.46 102.183 130.903 102.366 131.23 102.692C131.557 103.017 131.74 103.459 131.74 103.919C131.74 104.379 131.557 104.821 131.23 105.146C130.903 105.472 130.46 105.654 129.998 105.654Z" fill="#D1D1D1"/>
<path opacity="0.9" d="M137.185 111.511H88.6308C88.4018 111.511 88.1751 111.466 87.9635 111.379C87.7519 111.292 87.5596 111.164 87.3977 111.003C87.2357 110.842 87.1072 110.651 87.0195 110.44C86.9318 110.229 86.8867 110.003 86.8867 109.775C86.8867 109.547 86.9318 109.321 87.0195 109.111C87.1072 108.9 87.2357 108.709 87.3977 108.547C87.5596 108.386 87.7519 108.258 87.9635 108.171C88.1751 108.084 88.4018 108.04 88.6308 108.04H137.185C137.413 108.04 137.64 108.084 137.852 108.171C138.063 108.258 138.256 108.386 138.418 108.547C138.58 108.709 138.708 108.9 138.796 109.111C138.883 109.321 138.929 109.547 138.929 109.775C138.929 110.003 138.883 110.229 138.796 110.44C138.708 110.651 138.58 110.842 138.418 111.003C138.256 111.164 138.063 111.292 137.852 111.379C137.64 111.466 137.413 111.511 137.185 111.511Z" fill="#D1D1D1"/>
<path opacity="0.9" d="M79.3636 87.92H64.724C64.5025 87.9198 64.2902 87.832 64.1336 87.676C63.977 87.52 63.8889 87.3085 63.8887 87.0878V74.1056C63.8889 73.885 63.977 73.6734 64.1336 73.5174C64.2902 73.3614 64.5025 73.2736 64.724 73.2734H79.3636C79.5851 73.2736 79.7974 73.3614 79.954 73.5174C80.1106 73.6734 80.1987 73.885 80.199 74.1056V87.0878C80.1987 87.3085 80.1106 87.52 79.954 87.676C79.7974 87.832 79.5851 87.9198 79.3636 87.92Z" fill="#D1D1D1"/>
<path opacity="0.9" d="M79.3636 114.17H64.724C64.5025 114.17 64.2902 114.082 64.1336 113.926C63.977 113.77 63.8889 113.559 63.8887 113.338V100.356C63.8889 100.135 63.977 99.9235 64.1336 99.7675C64.2902 99.6114 64.5025 99.5237 64.724 99.5234H79.3636C79.5851 99.5237 79.7974 99.6114 79.954 99.7675C80.1106 99.9235 80.1987 100.135 80.199 100.356V113.338C80.1987 113.559 80.1106 113.77 79.954 113.926C79.7974 114.082 79.5851 114.17 79.3636 114.17Z" fill="#D1D1D1"/>
<path opacity="0.9" d="M130.043 50.182H99.5448C99.0828 50.182 98.6397 49.9991 98.313 49.6737C97.9863 49.3482 97.8027 48.9067 97.8027 48.4464C97.8027 47.9861 97.9863 47.5447 98.313 47.2192C98.6397 46.8937 99.0828 46.7109 99.5448 46.7109H130.043C130.506 46.7109 130.949 46.8937 131.275 47.2192C131.602 47.5447 131.786 47.9861 131.786 48.4464C131.786 48.9067 131.602 49.3482 131.275 49.6737C130.949 49.9991 130.506 50.182 130.043 50.182Z" fill="#D1D1D1"/>
<path opacity="0.9" d="M137.23 56.0395H99.5448C99.3161 56.0395 99.0895 55.9946 98.8782 55.9074C98.6668 55.8202 98.4748 55.6923 98.313 55.5312C98.1512 55.37 98.0229 55.1787 97.9353 54.9681C97.8478 54.7576 97.8027 54.5319 97.8027 54.304C97.8027 54.076 97.8478 53.8504 97.9353 53.6398C98.0229 53.4292 98.1512 53.2379 98.313 53.0767C98.4748 52.9156 98.6668 52.7877 98.8782 52.7005C99.0895 52.6133 99.3161 52.5684 99.5448 52.5684H137.23C137.692 52.5684 138.135 52.7513 138.461 53.0767C138.788 53.4022 138.972 53.8437 138.972 54.304C138.972 54.7643 138.788 55.2057 138.461 55.5312C138.135 55.8566 137.692 56.0395 137.23 56.0395Z" fill="#D1D1D1"/>
<path opacity="0.9" d="M92.7942 63.1379H64.6771C64.4557 63.1377 64.2433 63.0499 64.0867 62.8939C63.9301 62.7379 63.842 62.5264 63.8418 62.3057V40.4444C63.842 40.2238 63.9301 40.0123 64.0867 39.8563C64.2433 39.7003 64.4557 39.6125 64.6771 39.6123H92.7942C93.0157 39.6125 93.228 39.7003 93.3846 39.8563C93.5412 40.0123 93.6293 40.2238 93.6296 40.4444V62.3057C93.6293 62.5264 93.5412 62.7379 93.3846 62.8939C93.228 63.0499 93.0157 63.1377 92.7942 63.1379Z" fill="#333333"/>
</g>
</g>
<defs>
<clipPath id="clip0_51160_346704">
<rect width="170" height="152" fill="white"/>
</clipPath>
</defs>
</svg>
