<svg width="250" height="200" viewBox="0 0 250 200" fill="none" xmlns="http://www.w3.org/2000/svg">
<path opacity="0.69" fill-rule="evenodd" clip-rule="evenodd" d="M70.8472 135H187.126C190.979 135 194.103 131.866 194.103 128C194.103 124.134 190.979 121 187.126 121C187.126 121 181.146 117.866 181.146 114C181.146 110.134 185.085 107 189.943 107H200.083C203.936 107 207.06 103.866 207.06 100C207.06 96.134 203.936 93 200.083 93H178.156C182.009 93 185.133 89.866 185.133 86C185.133 82.134 182.009 79 178.156 79H218.023C221.876 79 225 75.866 225 72C225 68.134 221.876 65 218.023 65H86.794C82.9409 65 79.8173 68.134 79.8173 72C79.8173 75.866 82.9409 79 86.794 79H46.9269C43.0738 79 39.9502 82.134 39.9502 86C39.9502 89.866 43.0738 93 46.9269 93H71.8439C75.697 93 78.8206 96.134 78.8206 100C78.8206 103.866 75.697 107 71.8439 107H31.9767C28.1236 107 25 110.134 25 114C25 117.866 28.1236 121 31.9767 121H70.8472C66.994 121 63.8704 124.134 63.8704 128C63.8704 131.866 66.994 135 70.8472 135ZM210 100C210 103.866 213.134 107 217 107C220.866 107 224 103.866 224 100C224 96.1341 220.866 93.0001 217 93.0001C213.134 93.0001 210 96.1341 210 100Z" fill="#D1D1D1"/>
<circle cx="128.593" cy="100.255" r="42.2082" fill="#D1D1D1" stroke="#333333" stroke-width="2.5"/>
<circle cx="128.592" cy="100.255" r="33.3886" fill="white" stroke="#333333" stroke-width="2.5" stroke-linecap="round"/>
<path d="M163.241 133.644L170.801 141.203" stroke="#333333" stroke-width="2.5"/>
<path d="M169.349 148.848C166.838 146.336 166.838 142.264 169.349 139.752C171.861 137.241 175.933 137.241 178.445 139.752L192.411 153.719C194.923 156.231 194.923 160.303 192.411 162.815C189.9 165.326 185.828 165.326 183.316 162.815L169.349 148.848Z" fill="#D1D1D1" stroke="#333333" stroke-width="2.5"/>
<path d="M199.451 88.75C198.07 88.75 196.951 89.8693 196.951 91.25H199.451V91.25V88.75ZM201.697 88.75H199.451V91.25H201.697V88.75ZM204.197 91.25C204.197 89.8693 203.078 88.75 201.697 88.75V91.25V91.25H204.197ZM201.697 93.75C203.078 93.75 204.197 92.6307 204.197 91.25H201.697V93.75ZM199.451 93.75H201.697V91.25H199.451V93.75ZM196.951 91.25C196.951 92.6307 198.07 93.75 199.451 93.75V91.25H196.951ZM177.25 88.75C175.869 88.75 174.75 89.8693 174.75 91.25H177.25V88.75ZM194.618 88.75H177.25V91.25H194.618V88.75ZM197.118 91.25C197.118 89.8693 195.999 88.75 194.618 88.75V91.25H197.118ZM194.618 93.75C195.999 93.75 197.118 92.6307 197.118 91.25H194.618V93.75ZM177.25 93.75H194.618V91.25H177.25V93.75ZM174.75 91.25C174.75 92.6307 175.869 93.75 177.25 93.75V91.25H174.75ZM179.956 99.1147H179.956V96.6147C178.575 96.6147 177.456 97.734 177.456 99.1147H179.956ZM179.956 99.1147H179.956H177.456C177.456 100.495 178.575 101.615 179.956 101.615V99.1147ZM188.223 99.1147H179.956V101.615H188.223V99.1147ZM188.223 99.1147V101.615C189.604 101.615 190.723 100.495 190.723 99.1147H188.223ZM188.223 99.1147H190.723C190.723 97.734 189.604 96.6147 188.223 96.6147V99.1147ZM179.956 99.1147H188.223V96.6147H179.956V99.1147Z" fill="#333333"/>
<path d="M53.25 116.75C51.8693 116.75 50.75 117.869 50.75 119.25H53.25V116.75ZM57.5185 116.75H53.25V119.25H57.5185V116.75ZM60.0185 119.25C60.0185 117.869 58.8992 116.75 57.5185 116.75V119.25H60.0185ZM57.5185 121.75C58.8992 121.75 60.0185 120.631 60.0185 119.25H57.5185V121.75ZM53.25 121.75H57.5185V119.25H53.25V121.75ZM50.75 119.25C50.75 120.631 51.8693 121.75 53.25 121.75V119.25H50.75ZM63.4083 116.75C62.0276 116.75 60.9083 117.869 60.9083 119.25H63.4083V116.75ZM80.7766 116.75H63.4083V119.25H80.7766V116.75ZM83.2766 119.25C83.2766 117.869 82.1573 116.75 80.7766 116.75V119.25H83.2766ZM80.7766 121.75C82.1573 121.75 83.2766 120.631 83.2766 119.25H80.7766V121.75ZM63.4083 121.75H80.7766V119.25H63.4083V121.75ZM60.9083 119.25C60.9083 120.631 62.0276 121.75 63.4083 121.75V119.25H60.9083ZM77.2374 128.126V125.626C75.8567 125.626 74.7374 126.745 74.7374 128.126H77.2374ZM77.2374 128.126H74.7374C74.7374 129.507 75.8567 130.626 77.2374 130.626V128.126ZM85.5048 128.126H77.2374V130.626H85.5048V128.126ZM85.5048 128.126V130.626C86.8855 130.626 88.0048 129.506 88.0048 128.126H85.5048ZM85.5048 128.126H88.0048C88.0048 126.745 86.8855 125.626 85.5048 125.626V128.126ZM77.2374 128.126H85.5048V125.626H77.2374V128.126Z" fill="#333333"/>
<path d="M115.298 109.552C114.159 110.688 114.159 112.531 115.298 113.668C116.436 114.805 118.281 114.805 119.419 113.668L128.76 104.338L138.581 114.147C139.719 115.284 141.564 115.284 142.702 114.147C143.841 113.011 143.841 111.168 142.702 110.031L132.881 100.222L143.146 89.969C144.285 88.8322 144.285 86.9893 143.146 85.8525C142.008 84.7158 140.163 84.7158 139.025 85.8525L128.76 96.1053L118.975 86.332C117.837 85.1953 115.992 85.1953 114.854 86.332C113.715 87.4687 113.715 89.3117 114.854 90.4484L124.639 100.222L115.298 109.552Z" fill="#333333"/>
</svg>
