<svg width="250" height="200" viewBox="0 0 250 200" fill="none" xmlns="http://www.w3.org/2000/svg">
<path opacity="0.69" fill-rule="evenodd" clip-rule="evenodd" d="M88 135H171C174.866 135 178 131.866 178 128C178 124.134 174.866 121 171 121C171 121 165 117.866 165 114C165 110.134 168.952 107 173.826 107H184C187.866 107 191 103.866 191 100C191 96.134 187.866 93 184 93H162C165.866 93 169 89.866 169 86C169 82.134 165.866 79 162 79H202C205.866 79 209 75.866 209 72C209 68.134 205.866 65 202 65H104C100.134 65 97 68.134 97 72C97 75.866 100.134 79 104 79H64C60.134 79 57 82.134 57 86C57 89.866 60.134 93 64 93H89C92.866 93 96 96.134 96 100C96 103.866 92.866 107 89 107H49C45.134 107 42 110.134 42 114C42 117.866 45.134 121 49 121H88C84.134 121 81 124.134 81 128C81 131.866 84.134 135 88 135ZM195 100C195 103.866 198.134 107 202 107C205.866 107 209 103.866 209 100C209 96.134 205.866 93 202 93C198.134 93 195 96.134 195 100Z" fill="#D1D1D1"/>
<path d="M169.198 61.3486H93.291V138.372H169.198V61.3486Z" fill="white"/>
<path fill-rule="evenodd" clip-rule="evenodd" d="M162.22 58H100.267C94.5879 58 89.9414 62.6465 89.9414 68.3256V130.279C89.9414 135.958 94.5879 140.605 100.267 140.605H162.22C167.9 140.605 172.546 135.958 172.546 130.279V68.3256C172.546 62.6465 167.9 58 162.22 58ZM168.416 130.279C168.416 133.764 165.705 136.474 162.22 136.474H100.267C96.7821 136.474 94.0716 133.764 94.0716 130.279V68.3256C94.0716 64.8407 96.7821 62.1302 100.267 62.1302H162.22C165.705 62.1302 168.416 64.8407 168.416 68.3256V130.279Z" fill="#333333"/>
<path fill-rule="evenodd" clip-rule="evenodd" d="M108.011 94.1394H123.499C124.919 94.1394 126.081 92.9778 126.081 91.558V76.0697C126.081 74.6499 124.919 73.4883 123.499 73.4883H108.011C106.591 73.4883 105.43 74.6499 105.43 76.0697V91.558C105.43 92.9778 106.591 94.1394 108.011 94.1394ZM110.592 78.6511H120.918V88.9767H110.592V78.6511Z" fill="#333333"/>
<path fill-rule="evenodd" clip-rule="evenodd" d="M155.767 73.4883H137.697C136.923 73.4883 136.406 74.0046 136.406 74.779V77.3604C136.406 78.1348 136.923 78.6511 137.697 78.6511H155.767C156.541 78.6511 157.057 78.1348 157.057 77.3604V74.779C157.057 74.0046 156.541 73.4883 155.767 73.4883Z" fill="#333333"/>
<path fill-rule="evenodd" clip-rule="evenodd" d="M155.767 88.9766H137.697C136.923 88.9766 136.406 89.4928 136.406 90.2673V92.8487C136.406 93.6231 136.923 94.1394 137.697 94.1394H155.767C156.541 94.1394 157.057 93.6231 157.057 92.8487V90.2673C157.057 89.4928 156.541 88.9766 155.767 88.9766Z" fill="#333333"/>
<path fill-rule="evenodd" clip-rule="evenodd" d="M155.767 104.465H106.72C105.946 104.465 105.43 104.981 105.43 105.756V108.337C105.43 109.111 105.946 109.628 106.72 109.628H155.767C156.541 109.628 157.058 109.111 157.058 108.337V105.756C157.058 104.981 156.541 104.465 155.767 104.465Z" fill="#333333"/>
<path fill-rule="evenodd" clip-rule="evenodd" d="M155.767 119.953H106.72C105.946 119.953 105.43 120.469 105.43 121.244V123.825C105.43 124.6 105.946 125.116 106.72 125.116H155.767C156.541 125.116 157.058 124.6 157.058 123.825V121.244C157.058 120.469 156.541 119.953 155.767 119.953Z" fill="#333333"/>
<path d="M183.06 113.082H148.641C147.26 113.082 146.141 114.201 146.141 115.582V150.001C146.141 151.381 147.26 152.501 148.641 152.501H183.06C184.44 152.501 185.56 151.381 185.56 150.001V115.582C185.56 114.201 184.44 113.082 183.06 113.082Z" fill="white" stroke="#333333" stroke-width="3"/>
<path d="M177.635 131.772C177.63 131.96 177.567 132.142 177.454 132.293C177.341 132.444 177.184 132.556 177.005 132.615L169.687 135.201C169.36 135.315 169.062 135.502 168.817 135.747C168.572 135.993 168.385 136.29 168.27 136.617L165.706 143.949C165.646 144.133 165.529 144.293 165.373 144.406C165.216 144.52 165.028 144.58 164.835 144.58C164.639 144.579 164.448 144.519 164.288 144.406C164.129 144.293 164.008 144.134 163.942 143.949L156.412 124.574C156.34 124.403 156.323 124.215 156.362 124.033C156.402 123.852 156.495 123.688 156.631 123.561C156.716 123.475 156.818 123.406 156.929 123.358C157.041 123.311 157.161 123.286 157.283 123.285C157.403 123.286 157.523 123.305 157.637 123.342L177.04 130.879C177.227 130.937 177.388 131.057 177.496 131.22C177.605 131.382 177.654 131.577 177.635 131.772Z" fill="#333333"/>
</svg>
