<svg width="250" height="200" viewBox="0 0 250 200" fill="none" xmlns="http://www.w3.org/2000/svg">
<path fill-rule="evenodd" clip-rule="evenodd" d="M71 135H187C190.866 135 194 131.866 194 128C194 124.134 190.866 121 187 121C187 121 181 117.866 181 114C181 110.134 184.952 107 189.826 107H200C203.866 107 207 103.866 207 100C207 96.134 203.866 93 200 93H178C181.866 93 185 89.866 185 86C185 82.134 181.866 79 178 79H218C221.866 79 225 75.866 225 72C225 68.134 221.866 65 218 65H87C83.134 65 80 68.134 80 72C80 75.866 83.134 79 87 79H47C43.134 79 40 82.134 40 86C40 89.866 43.134 93 47 93H72C75.866 93 79 96.134 79 100C79 103.866 75.866 107 72 107H32C28.134 107 25 110.134 25 114C25 117.866 28.134 121 32 121H71C67.134 121 64 124.134 64 128C64 131.866 67.134 135 71 135ZM211 99.9998C211 103.866 214.134 107 218 107C221.866 107 225 103.866 225 99.9998C225 96.1338 221.866 92.9998 218 92.9998C214.134 92.9998 211 96.1338 211 99.9998Z" fill="#EBEBEB"/>
<mask id="path-2-inside-1_12873_425943" fill="white">
<rect x="92.8398" y="55.5303" width="74.521" height="95.2213" rx="1.3"/>
</mask>
<rect x="92.8398" y="55.5303" width="74.521" height="95.2213" rx="1.3" fill="white" stroke="#333333" stroke-width="8" mask="url(#path-2-inside-1_12873_425943)"/>
<path d="M116.854 93.6194C121.001 86.5004 136.001 81.5005 143.501 93.6193" stroke="#333333" stroke-width="4" stroke-linecap="round"/>
<path d="M102.611 110.695H158.5" stroke="#333333" stroke-width="4"/>
<path d="M102.777 119.695L158.254 119.695" stroke="#333333" stroke-width="4"/>
<path d="M102.777 128.695L158.254 128.695" stroke="#333333" stroke-width="4"/>
<path d="M102.777 137.695L127.501 137.695" stroke="#333333" stroke-width="4"/>
<ellipse cx="115.197" cy="81.1989" rx="2.48404" ry="2.48403" fill="#333333"/>
<ellipse cx="145.006" cy="81.1989" rx="2.48404" ry="2.48403" fill="#333333"/>
<path d="M117.891 149.924V164" stroke="#333333" stroke-width="4" stroke-linecap="round"/>
<path d="M142.725 149.924V164" stroke="#333333" stroke-width="4" stroke-linecap="round"/>
<path d="M165.5 87.5C166.19 92.7441 170.839 104.052 181.437 104.383" stroke="#333333" stroke-width="4" stroke-linecap="round"/>
<path d="M94.9097 94.4472C89.5276 92.2391 78.4322 86.4983 77.1074 79.543" stroke="#333333" stroke-width="4"/>
<path d="M79.592 101.485L71.5 22" stroke="#333333" stroke-width="4" stroke-linecap="round"/>
<path d="M71.3002 21.2106C71.2293 20.4962 71.7511 19.8595 72.4655 19.7886L130.676 14.0123C131.39 13.9414 132.027 14.4631 132.098 15.1776L135.17 46.1366C135.241 46.8511 134.719 47.4877 134.005 47.5586L75.7944 53.335C75.0799 53.4059 74.4433 52.8841 74.3724 52.1697L71.3002 21.2106Z" fill="#F2F2F2" stroke="#333333" stroke-width="4"/>
<path d="M89.2024 27.5914L92.8286 27.1929L93.9662 37.5466L96.1133 37.3107L96.4095 40.0065L94.2624 40.2424L94.6373 43.6538L91.4167 44.0077L91.0418 40.5963L83.5748 41.4167L83.3231 39.1265L89.2024 27.5914ZM86.5707 38.3592L90.7456 37.9005L90.0431 31.507L86.5707 38.3592Z" fill="#333333"/>
<path d="M104.928 42.8611C103.592 43.0079 102.393 42.7936 101.332 42.218C100.287 41.6407 99.4319 40.7448 98.7673 39.5301C98.1026 38.3154 97.6716 36.8095 97.4741 35.0123C97.2766 33.2151 97.3704 31.6515 97.7554 30.3215C98.1405 28.9915 98.7805 27.9313 99.6755 27.1408C100.586 26.3485 101.71 25.879 103.046 25.7322C104.398 25.5837 105.596 25.7981 106.642 26.3754C107.703 26.9509 108.566 27.846 109.23 29.0607C109.911 30.2736 110.35 31.7786 110.547 33.5758C110.745 35.373 110.644 36.9454 110.245 38.2931C109.86 39.6231 109.212 40.6842 108.301 41.4765C107.404 42.251 106.28 42.7126 104.928 42.8611ZM104.582 39.7121C105.552 39.6055 106.248 39.0542 106.67 38.0582C107.106 37.0445 107.23 35.6868 107.043 33.985C106.853 32.2515 106.435 30.9452 105.792 30.0663C105.162 29.1697 104.362 28.7747 103.392 28.8813C102.422 28.9879 101.726 29.5392 101.304 30.5352C100.882 31.5312 100.767 32.896 100.957 34.6296C101.146 36.3473 101.555 37.6544 102.185 38.551C102.829 39.4299 103.628 39.817 104.582 39.7121Z" fill="#333333"/>
<path d="M118.347 24.389L121.973 23.9905L123.111 34.3442L125.258 34.1083L125.554 36.8041L123.407 37.04L123.782 40.4515L120.562 40.8053L120.187 37.3939L112.72 38.2143L112.468 35.9241L118.347 24.389ZM115.716 35.1568L119.891 34.6981L119.188 28.3046L115.716 35.1568Z" fill="#333333"/>
<mask id="path-17-inside-2_12873_425943" fill="white">
<path fill-rule="evenodd" clip-rule="evenodd" d="M205.201 71C205.201 69.8954 206.097 69 207.201 69H209.447C210.552 69 211.447 69.8954 211.447 71C211.447 72.1046 210.552 73 209.447 73H207.201C206.097 73 205.201 72.1046 205.201 71ZM183 71C183 69.8955 183.895 69 185 69H202.368C203.473 69 204.368 69.8955 204.368 71C204.368 72.1046 203.473 73 202.368 73H185C183.895 73 183 72.1046 183 71ZM187.706 76.8647C186.601 76.8647 185.706 77.7601 185.706 78.8647C185.706 79.9692 186.601 80.8647 187.706 80.8647H195.973C197.078 80.8647 197.973 79.9692 197.973 78.8647C197.973 77.7601 197.078 76.8647 195.973 76.8647H187.706Z"/>
</mask>
<path d="M207.201 66.5C204.716 66.5 202.701 68.5147 202.701 71H207.701C207.701 71.2761 207.477 71.5 207.201 71.5V66.5ZM209.447 66.5H207.201V71.5H209.447V66.5ZM213.947 71C213.947 68.5147 211.932 66.5 209.447 66.5V71.5C209.171 71.5 208.947 71.2761 208.947 71H213.947ZM209.447 75.5C211.932 75.5 213.947 73.4853 213.947 71H208.947C208.947 70.7239 209.171 70.5 209.447 70.5V75.5ZM207.201 75.5H209.447V70.5H207.201V75.5ZM202.701 71C202.701 73.4853 204.716 75.5 207.201 75.5V70.5C207.477 70.5 207.701 70.7239 207.701 71H202.701ZM185 66.5C182.515 66.5 180.5 68.5147 180.5 71H185.5C185.5 71.2762 185.276 71.5 185 71.5V66.5ZM202.368 66.5H185V71.5H202.368V66.5ZM206.868 71C206.868 68.5148 204.854 66.5 202.368 66.5V71.5C202.092 71.5 201.868 71.2762 201.868 71H206.868ZM202.368 75.5C204.854 75.5 206.868 73.4853 206.868 71H201.868C201.868 70.7239 202.092 70.5 202.368 70.5V75.5ZM185 75.5H202.368V70.5H185V75.5ZM180.5 71C180.5 73.4853 182.515 75.5 185 75.5V70.5C185.276 70.5 185.5 70.7239 185.5 71H180.5ZM188.206 78.8647C188.206 79.1408 187.982 79.3647 187.706 79.3647V74.3647C185.22 74.3647 183.206 76.3794 183.206 78.8647H188.206ZM187.706 78.3647C187.982 78.3647 188.206 78.5885 188.206 78.8647H183.206C183.206 81.35 185.22 83.3647 187.706 83.3647V78.3647ZM195.973 78.3647H187.706V83.3647H195.973V78.3647ZM195.473 78.8647C195.473 78.5885 195.697 78.3647 195.973 78.3647V83.3647C198.458 83.3647 200.473 81.35 200.473 78.8647H195.473ZM195.973 79.3647C195.697 79.3647 195.473 79.1408 195.473 78.8647H200.473C200.473 76.3794 198.458 74.3647 195.973 74.3647V79.3647ZM187.706 79.3647H195.973V74.3647H187.706V79.3647Z" fill="#333333" mask="url(#path-17-inside-2_12873_425943)"/>
<path d="M74.8075 116.011H57.4392" stroke="#333333" stroke-width="4" stroke-linecap="round" stroke-linejoin="round"/>
<path d="M51.5504 116.011H47.2819" stroke="#333333" stroke-width="4" stroke-linecap="round" stroke-linejoin="round"/>
<path d="M79.537 124.886H71.2695" stroke="#333333" stroke-width="4" stroke-linecap="round" stroke-linejoin="round"/>
</svg>
