<svg width="80" height="59" viewBox="0 0 80 59" fill="none" xmlns="http://www.w3.org/2000/svg">
<path fill-rule="evenodd" clip-rule="evenodd" d="M18.3389 44.0005H64.8505C66.3918 44.0005 67.6412 42.7469 67.6412 41.2005C67.6412 39.6541 66.3918 38.4005 64.8505 38.4005C64.8505 38.4005 62.4585 37.1469 62.4585 35.6005C62.4585 34.0541 64.0339 32.8005 65.9772 32.8005H70.0332C71.5745 32.8005 72.8239 31.5469 72.8239 30.0005C72.8239 28.4541 71.5745 27.2005 70.0332 27.2005H61.2625C62.8037 27.2005 64.0532 25.9469 64.0532 24.4005C64.0532 22.8541 62.8037 21.6005 61.2625 21.6005H77.2093C78.7506 21.6005 80 20.3469 80 18.8005C80 17.2541 78.7506 16.0005 77.2093 16.0005H24.7176C23.1763 16.0005 21.9269 17.2541 21.9269 18.8005C21.9269 20.3469 23.1763 21.6005 24.7176 21.6005H8.77076C7.2295 21.6005 5.98007 22.8541 5.98007 24.4005C5.98007 25.9469 7.2295 27.2005 8.77076 27.2005H18.7375C20.2788 27.2005 21.5282 28.4541 21.5282 30.0005C21.5282 31.5469 20.2788 32.8005 18.7375 32.8005H2.7907C1.24944 32.8005 0 34.0541 0 35.6005C0 37.1469 1.24944 38.4005 2.7907 38.4005H18.3389C16.7976 38.4005 15.5482 39.6541 15.5482 41.2005C15.5482 42.7469 16.7976 44.0005 18.3389 44.0005ZM74 30.0006C74 31.547 75.2536 32.8006 76.8 32.8006C78.3464 32.8006 79.6 31.547 79.6 30.0006C79.6 28.4542 78.3464 27.2006 76.8 27.2006C75.2536 27.2006 74 28.4542 74 30.0006Z" fill="#EBEBEB"/>
<path fill-rule="evenodd" clip-rule="evenodd" d="M51.8349 46.6922C53.1474 45.8475 54.3144 44.7937 55.0736 43.943L51.8349 46.6922ZM56.2986 42.5292C56.9265 41.76 57.491 40.9557 57.9919 40.1231C59.0936 38.2921 59.8877 36.3248 60.373 34.2966C60.8638 32.2454 61.0388 30.1318 60.8968 28.0336C60.7729 26.2027 60.4075 24.3835 59.8 22.6277C59.1972 20.8858 58.3561 19.2063 57.2757 17.6396C56.6319 16.7061 55.9032 15.8126 55.0894 14.9699C53.8946 13.7326 52.584 12.6749 51.1916 11.7973C49.6954 10.8543 48.1046 10.1194 46.4611 9.59323C44.4029 8.93428 42.2621 8.60282 40.1209 8.60041C38.4549 8.59854 36.7887 8.79586 35.1611 9.19315C33.3288 9.6404 31.5453 10.3411 29.8661 11.2962C28.3899 12.1359 26.9943 13.1722 25.7168 14.4059C24.1114 15.9562 22.811 17.7038 21.8167 19.5742C20.8433 21.4053 20.1634 23.3541 19.778 25.3505C19.381 27.4073 19.2967 29.5147 19.5262 31.5961C19.8237 34.2937 20.6486 36.9478 22.0033 39.3914C22.8701 40.955 23.9539 42.4325 25.2554 43.7803C27.3215 45.9198 29.7336 47.5225 32.3171 48.5851C35.4589 49.8773 38.8541 50.3707 42.1885 50.0594C44.987 49.798 47.7427 48.9698 50.2699 47.5711" fill="white"/>
<path d="M51.508 46.1842C51.2275 46.3647 51.1464 46.7385 51.327 47.019C51.5075 47.2996 51.8812 47.3806 52.1618 47.2001L51.508 46.1842ZM55.5243 44.3452C55.7464 44.0963 55.7247 43.7144 55.4758 43.4923C55.2269 43.2702 54.845 43.2919 54.6229 43.5408L55.5243 44.3452ZM55.8307 42.1472C55.6197 42.4056 55.6582 42.7861 55.9166 42.9971C56.175 43.2081 56.5555 43.1696 56.7665 42.9112L55.8307 42.1472ZM57.9919 40.1231L57.4743 39.8117L57.9919 40.1231ZM60.373 34.2966L60.9604 34.4372L60.373 34.2966ZM60.8968 28.0336L60.2942 28.0744L60.8968 28.0336ZM59.8 22.6277L60.3708 22.4302L59.8 22.6277ZM57.2757 17.6396L56.7784 17.9826L57.2757 17.6396ZM55.0894 14.9699L54.6549 15.3895L55.0894 14.9699ZM51.1916 11.7973L51.5136 11.2863L51.1916 11.7973ZM46.4611 9.59323L46.6453 9.01797L46.4611 9.59323ZM40.1209 8.60041L40.1215 7.99638L40.1209 8.60041ZM35.1611 9.19315L35.0179 8.60635L35.1611 9.19315ZM29.8661 11.2962L29.5674 10.7712L29.8661 11.2962ZM25.7168 14.4059L26.1364 14.8404L25.7168 14.4059ZM21.8167 19.5742L22.3501 19.8577L21.8167 19.5742ZM19.778 25.3505L20.3711 25.465L19.778 25.3505ZM19.5262 31.5961L18.9258 31.6623L19.5262 31.5961ZM22.0033 39.3914L22.5316 39.0986L22.0033 39.3914ZM25.2554 43.7803L25.6899 43.3607L25.2554 43.7803ZM32.3171 48.5851L32.0874 49.1437L32.3171 48.5851ZM42.1885 50.0594L42.1323 49.458L42.1885 50.0594ZM50.5624 48.0996C50.8543 47.938 50.9599 47.5705 50.7984 47.2786C50.6369 46.9867 50.2693 46.8811 49.9774 47.0426L50.5624 48.0996ZM52.1618 47.2001C53.5236 46.3238 54.7316 45.2334 55.5243 44.3452L54.6229 43.5408C53.8972 44.354 52.7713 45.3713 51.508 46.1842L52.1618 47.2001ZM56.7665 42.9112C57.4128 42.1196 57.9938 41.2916 58.5095 40.4345L57.4743 39.8117C56.9882 40.6197 56.4403 41.4005 55.8307 42.1472L56.7665 42.9112ZM58.5095 40.4345C59.6436 38.5495 60.461 36.5245 60.9604 34.4372L59.7856 34.1561C59.3144 36.1252 58.5435 38.0347 57.4743 39.8117L58.5095 40.4345ZM60.9604 34.4372C61.4656 32.3263 61.6456 30.1515 61.4995 27.9928L60.2942 28.0744C60.4321 30.112 60.2621 32.1645 59.7856 34.1561L60.9604 34.4372ZM61.4995 27.9928C61.3719 26.109 60.996 24.2371 60.3708 22.4302L59.2292 22.8252C59.819 24.5299 60.1738 26.2963 60.2942 28.0744L61.4995 27.9928ZM60.3708 22.4302C59.7505 20.6375 58.8847 18.909 57.7729 17.2967L56.7784 17.9826C57.8274 19.5036 58.644 21.1341 59.2292 22.8252L60.3708 22.4302ZM57.7729 17.2967C57.1105 16.3361 56.3608 15.4169 55.5239 14.5503L54.6549 15.3895C55.4456 16.2083 56.1534 17.0761 56.7784 17.9826L57.7729 17.2967ZM55.5239 14.5503C54.2952 13.2779 52.9468 12.1895 51.5136 11.2863L50.8695 12.3083C52.2213 13.1602 53.494 14.1874 54.6549 15.3895L55.5239 14.5503ZM51.5136 11.2863C49.9738 10.3158 48.3366 9.55943 46.6453 9.01797L46.277 10.1685C47.8726 10.6794 49.417 11.3929 50.8695 12.3083L51.5136 11.2863ZM46.6453 9.01797C44.5273 8.33988 42.3245 7.99886 40.1215 7.99638L40.1202 9.20443C42.1996 9.20677 44.2785 9.52868 46.277 10.1685L46.6453 9.01797ZM40.1215 7.99638C38.4075 7.99445 36.693 8.19748 35.0179 8.60635L35.3044 9.77994C36.8845 9.39425 38.5023 9.20262 40.1202 9.20443L40.1215 7.99638ZM35.0179 8.60635C33.132 9.06666 31.2962 9.7879 29.5674 10.7712L30.1647 11.8213C31.7945 10.8943 33.5255 10.2141 35.3044 9.77994L35.0179 8.60635ZM29.5674 10.7712C28.0477 11.6356 26.6114 12.7023 25.2972 13.9714L26.1364 14.8404C27.3772 13.6421 28.7321 12.6361 30.1647 11.8213L29.5674 10.7712ZM25.2972 13.9714C23.6456 15.5663 22.307 17.365 21.2834 19.2907L22.3501 19.8577C23.3149 18.0426 24.5771 16.3461 26.1364 14.8404L25.2972 13.9714ZM21.2834 19.2907C20.2813 21.1758 19.5815 23.1816 19.1849 25.236L20.3711 25.465C20.7453 23.5266 21.4053 21.6349 22.3501 19.8577L21.2834 19.2907ZM19.1849 25.236C18.7764 27.3525 18.6897 29.5208 18.9258 31.6623L20.1266 31.5298C19.9037 29.5086 19.9856 27.4621 20.3711 25.465L19.1849 25.236ZM18.9258 31.6623C19.232 34.4379 20.0807 37.1692 21.475 39.6843L22.5316 39.0986C21.2164 36.7263 20.4155 34.1496 20.1266 31.5298L18.9258 31.6623ZM21.475 39.6843C22.3672 41.2937 23.4825 42.8138 24.8209 44.1998L25.6899 43.3607C24.4254 42.0512 23.373 40.6164 22.5316 39.0986L21.475 39.6843ZM24.8209 44.1998C26.946 46.4004 29.4282 48.05 32.0874 49.1437L32.5469 48.0265C30.0391 46.995 27.697 45.4391 25.6899 43.3607L24.8209 44.1998ZM32.0874 49.1437C35.3206 50.4735 38.814 50.9811 42.2447 50.6608L42.1323 49.458C38.8942 49.7603 35.5972 49.2811 32.5469 48.0265L32.0874 49.1437ZM42.2447 50.6608C45.1242 50.3919 47.9607 49.5395 50.5624 48.0996L49.9774 47.0426C47.5248 48.4 44.8498 49.2042 42.1323 49.458L42.2447 50.6608Z" fill="black"/>
<path d="M19.2002 47.2007V49.2007" stroke="black" stroke-width="1.61074" stroke-linecap="round" stroke-linejoin="round"/>
<path d="M19.2002 53.2007V55.2007" stroke="black" stroke-width="1.61074" stroke-linecap="round" stroke-linejoin="round"/>
<path d="M15.2002 51.2007H17.2002" stroke="black" stroke-width="1.61074" stroke-linecap="round" stroke-linejoin="round"/>
<path d="M21.2002 51.2007H23.2002" stroke="black" stroke-width="1.61074" stroke-linecap="round" stroke-linejoin="round"/>
<path fill-rule="evenodd" clip-rule="evenodd" d="M34.3997 12.4006C33.5314 12.752 32.6805 13.1717 31.8555 13.6595C30.5735 14.4175 29.3541 15.34 28.229 16.4264C27.7679 16.8718 27.3337 17.3339 26.9266 17.8107M25.586 19.5311C25.2905 19.9776 25.0186 20.4354 24.7702 20.9026C24.5868 21.2477 24.4162 21.5979 24.2585 21.9526" fill="white"/>
<path d="M34.7019 13.1471C35.1142 12.9802 35.3131 12.5107 35.1462 12.0984C34.9793 11.6861 34.5098 11.4872 34.0975 11.6541L34.7019 13.1471ZM31.8555 13.6595L31.4456 12.9663L31.8555 13.6595ZM28.229 16.4264L27.6696 15.8471L28.229 16.4264ZM26.3141 17.2878C26.0253 17.626 26.0654 18.1344 26.4036 18.4232C26.7419 18.712 27.2502 18.672 27.5391 18.3337L26.3141 17.2878ZM26.2576 19.9755C26.5031 19.6046 26.4014 19.1049 26.0305 18.8595C25.6595 18.614 25.1599 18.7157 24.9144 19.0866L26.2576 19.9755ZM24.7702 20.9026L25.4813 21.2806L25.4813 21.2806L24.7702 20.9026ZM23.5226 21.6254C23.3419 22.0318 23.5249 22.5078 23.9313 22.6885C24.3377 22.8692 24.8137 22.6862 24.9944 22.2798L23.5226 21.6254ZM34.0975 11.6541C33.1922 12.0205 32.3053 12.458 31.4456 12.9663L32.2654 14.3528C33.0558 13.8854 33.8707 13.4835 34.7019 13.1471L34.0975 11.6541ZM31.4456 12.9663C30.1097 13.7562 28.84 14.7168 27.6696 15.8471L28.7885 17.0058C29.8681 15.9632 31.0373 15.0789 32.2654 14.3528L31.4456 12.9663ZM27.6696 15.8471C27.1898 16.3104 26.7379 16.7914 26.3141 17.2878L27.5391 18.3337C27.9294 17.8765 28.3459 17.4332 28.7885 17.0058L27.6696 15.8471ZM24.9144 19.0866C24.6046 19.5548 24.3195 20.0347 24.0591 20.5246L25.4813 21.2806C25.7177 20.8361 25.9764 20.4005 26.2576 19.9755L24.9144 19.0866ZM24.0591 20.5246C23.8667 20.8864 23.6879 21.2536 23.5226 21.6254L24.9944 22.2798C25.1445 21.9423 25.3068 21.609 25.4813 21.2806L24.0591 20.5246Z" fill="black"/>
<path d="M61.2002 4.00049V6.00049" stroke="black" stroke-width="1.61074" stroke-linecap="round" stroke-linejoin="round"/>
<path d="M61.2002 10.0005V12.0005" stroke="black" stroke-width="1.61074" stroke-linecap="round" stroke-linejoin="round"/>
<path d="M57.2002 8.00049H59.2002" stroke="black" stroke-width="1.61074" stroke-linecap="round" stroke-linejoin="round"/>
<path d="M63.2002 8.00049H65.2002" stroke="black" stroke-width="1.61074" stroke-linecap="round" stroke-linejoin="round"/>
<path d="M40.1345 23.0203L40.1345 30.103L40.1345 37.1858" stroke="black" stroke-width="1.61074" stroke-linecap="round"/>
<path d="M47.1814 30.0677L33.0159 30.0676" stroke="black" stroke-width="1.61074" stroke-linecap="round"/>
</svg>
