<svg width="20" height="20" viewBox="0 0 20 20" fill="none" xmlns="http://www.w3.org/2000/svg">
<path fill-rule="evenodd" clip-rule="evenodd" d="M2.61719 17.3828H7.12891V12.8711H2.61719V17.3828ZM8.49609 17.3828H17.3828V2.61719H2.61719V11.5039H8.49609V17.3828ZM1.25 2.13867V17.8613C1.25 18.3521 1.64787 18.75 2.13867 18.75H17.8613C18.3521 18.75 18.75 18.3521 18.75 17.8613V2.13867C18.75 1.64787 18.3521 1.25 17.8613 1.25H2.13867C1.64787 1.25 1.25 1.64787 1.25 2.13867ZM15.0586 10.1367V8.76953H11.6503L15.3417 5.07813L14.375 4.11138L10.6836 7.80278V4.39453H9.31641V10.1367H15.0586Z" fill="#686868"/>
</svg>
