<svg width="16" height="16" viewBox="0 0 16 16" fill="none" xmlns="http://www.w3.org/2000/svg">
<path fill-rule="evenodd" clip-rule="evenodd" d="M2 14H5.75002L5.75002 10.25H2L2 14ZM6.75002 14L14 14L14 2L2 2L2 9.24998H6.75002L6.75002 14ZM1 1.65L1 14.35C1 14.709 1.29101 15 1.65 15L14.35 15C14.709 15 15 14.709 15 14.35L15 1.65C15 1.29101 14.709 1 14.35 1L1.65 1C1.29101 1 1 1.29101 1 1.65ZM7.5 3.56252V4.56252L10.2929 4.56252L7.29289 7.56252L8 8.26963L11 5.26963V8.06252L12 8.06252V3.56252L7.5 3.56252Z" fill="#686868"/>
</svg>
