<svg width="14" height="13" viewBox="0 0 14 13" fill="none" xmlns="http://www.w3.org/2000/svg">
<path fill-rule="evenodd" clip-rule="evenodd" d="M1 1V11.25H13V1H1ZM0.65 0C0.291015 0 0 0.291014 0 0.65V11.6C0 11.959 0.291015 12.25 0.65 12.25H13.35C13.709 12.25 14 11.959 14 11.6V0.65C14 0.291015 13.709 0 13.35 0H0.65ZM9.5 2.75H11.75V3.75H9.5V2.75ZM9.5 5.75V6.75H11.75V5.75H9.5ZM9.5 8.75H11.75V9.75H9.5V8.75Z" fill="#006497"/>
<path fill-rule="evenodd" clip-rule="evenodd" d="M4.35938 3.85938C4.35938 3.4766 4.50961 3.27715 4.65317 3.16231C4.80566 3.04031 4.95969 3.00719 4.98789 3.00113C4.99161 3.00033 4.99314 3 4.99219 3H5.44531C5.44436 3 5.44589 3.00033 5.44961 3.00113C5.47781 3.00719 5.63184 3.04031 5.78433 3.16231C5.92789 3.27715 6.07812 3.4766 6.07812 3.85938C6.07812 4.47958 5.97563 4.79595 5.87603 4.99514C5.82299 5.10122 5.7637 5.18868 5.6906 5.2931L5.67494 5.31543C5.6083 5.41036 5.52199 5.5333 5.45122 5.67483C5.36853 5.84021 5.34781 6.0283 5.40698 6.21221C5.45988 6.37662 5.56296 6.49484 5.64623 6.57237C5.80469 6.7199 6.02858 6.84138 6.19947 6.9334L6.27934 6.97626C6.44396 7.06446 6.59675 7.14633 6.73802 7.23962C6.90188 7.34783 7.00865 7.44561 7.06835 7.53516C7.18056 7.70348 7.28392 8.07231 7.35182 8.55141C7.38574 8.7907 7.40774 9.03298 7.42095 9.25H3.01655C3.02976 9.03298 3.05176 8.7907 3.08568 8.55141C3.15358 8.07231 3.25694 7.70348 3.36915 7.53516C3.42885 7.44561 3.53562 7.34783 3.69948 7.23962C3.84075 7.14633 3.99353 7.06447 4.15815 6.97627L4.23803 6.9334C4.40892 6.84138 4.63281 6.7199 4.79127 6.57237C4.87454 6.49484 4.97762 6.37662 5.03052 6.21221C5.08969 6.0283 5.06897 5.84021 4.98628 5.67483C4.91551 5.5333 4.8292 5.41036 4.76256 5.31543L4.7469 5.2931C4.6738 5.18868 4.61451 5.10122 4.56147 4.99514C4.46187 4.79595 4.35938 4.47958 4.35938 3.85938ZM2.5 10.25C2.22386 10.25 2 10.0261 2 9.75C2 9.4286 2.02377 8.91767 2.09557 8.41109C2.16361 7.93108 2.28681 7.35589 2.5371 6.98046C2.70396 6.73017 2.93704 6.54475 3.14842 6.40516C3.33143 6.2843 3.52936 6.17845 3.69135 6.09182C3.71635 6.07846 3.74084 6.06536 3.76393 6.05293C3.85217 6.00541 3.92132 5.96662 3.97498 5.93435C3.96097 5.91414 3.94572 5.89236 3.92903 5.86851L3.92766 5.86657C3.85208 5.75859 3.75561 5.61949 3.66704 5.44236C3.48344 5.07514 3.35938 4.59855 3.35938 3.85938C3.35938 3.15465 3.66226 2.67441 4.02847 2.38144C4.34407 2.12896 4.70759 2.01493 4.94531 2.00138V2H5.49219V2.00138C5.72991 2.01493 6.09343 2.12896 6.40903 2.38144C6.77524 2.67441 7.07812 3.15465 7.07812 3.85938C7.07812 4.59855 6.95406 5.07514 6.77046 5.44236C6.68189 5.61949 6.58542 5.75859 6.50984 5.86657L6.5085 5.86847C6.49189 5.8922 6.47647 5.91423 6.46252 5.93435C6.51618 5.96662 6.58533 6.00541 6.67357 6.05293C6.69665 6.06535 6.72077 6.07825 6.74574 6.09161C6.90773 6.17823 7.10607 6.2843 7.28908 6.40516C7.50046 6.54475 7.73354 6.73017 7.9004 6.98046C8.15069 7.35589 8.27389 7.93108 8.34193 8.41109C8.41373 8.91767 8.4375 9.4286 8.4375 9.75C8.4375 10.0261 8.21364 10.25 7.9375 10.25H2.5ZM6.32145 5.83423C6.32142 5.83419 6.32144 5.83423 6.32145 5.83423V5.83423Z" fill="#006497"/>
</svg>
