<svg width="18" height="18" viewBox="0 0 18 18" fill="none" xmlns="http://www.w3.org/2000/svg">
<path fill-rule="evenodd" clip-rule="evenodd" d="M0.25 0.875C0.25 0.529822 0.529822 0.25 0.875 0.25H5.875C6.22018 0.25 6.5 0.529822 6.5 0.875V5.875C6.5 6.22018 6.22018 6.5 5.875 6.5H4V9.9375H10.25V9C10.25 8.65482 10.5298 8.375 10.875 8.375H17.125C17.4702 8.375 17.75 8.65482 17.75 9V12.125C17.75 12.4702 17.4702 12.75 17.125 12.75H10.875C10.5298 12.75 10.25 12.4702 10.25 12.125V11.1875H4V14.9375H10.25V14C10.25 13.6548 10.5298 13.375 10.875 13.375H17.125C17.4702 13.375 17.75 13.6548 17.75 14V17.125C17.75 17.4702 17.4702 17.75 17.125 17.75H10.875C10.5298 17.75 10.25 17.4702 10.25 17.125V16.1875H3.375C3.02982 16.1875 2.75 15.9077 2.75 15.5625V6.5H0.875C0.529822 6.5 0.25 6.22018 0.25 5.875V0.875ZM1.5 1.5V5.25H5.25V1.5H1.5ZM11.5 9.625V11.5H16.5V9.625H11.5ZM11.5 14.625V16.5H16.5V14.625H11.5Z" fill="#686868"/>
</svg>
