<svg width="20" height="20" viewBox="0 0 20 20" fill="none" xmlns="http://www.w3.org/2000/svg">
<path d="M15.25 14.3125C14.75 13.875 14.3125 13.3125 14.0625 12.75C13.9375 12.5 13.625 12.375 13.3125 12.5C13.0625 12.625 12.9375 12.9375 13.0625 13.25C13.4375 14 13.9375 14.6875 14.5625 15.25C14.5625 15.25 14.625 15.3125 14.625 15.375C14.625 15.5 14.5625 15.5625 14.4375 15.5625H2.5C2.375 15.5625 2.3125 15.5 2.3125 15.375C2.3125 15.3125 2.3125 15.3125 2.375 15.25C2.375 15.25 2.375 15.25 2.4375 15.25C3.75 14 4.5 12.375 4.5 10.625V8.625C4.5 6.75 5.75 5.1875 7.5625 4.75C7.875 4.6875 8.0625 4.375 7.9375 4.125C7.875 3.8125 7.5625 3.625 7.3125 3.75C5 4.1875 3.4375 6.25 3.4375 8.5625V10.625C3.4375 12.0625 2.8125 13.375 1.75 14.3125C1.75 14.3125 1.6875 14.3125 1.6875 14.375C1.375 14.625 1.25 15 1.25 15.3125C1.25 16 1.8125 16.5625 2.5 16.5625H5.8125C6.0625 17.8125 7.1875 18.75 8.5 18.75C9.8125 18.75 10.9375 17.8125 11.1875 16.5625H14.5C15.1875 16.5625 15.75 16 15.75 15.3125C15.75 14.9375 15.625 14.5625 15.25 14.3125C15.3125 14.3125 15.3125 14.3125 15.25 14.3125ZM8.5 17.6875C7.8125 17.6875 7.1875 17.25 6.9375 16.625H10C9.8125 17.1875 9.1875 17.6875 8.5 17.6875ZM13.9375 4.5C13.0625 4.5 12.375 5.1875 12.375 6.0625C12.375 6.9375 13.0625 7.625 13.9375 7.625C14.8125 7.625 15.5 6.9375 15.5 6.0625C15.5 5.1875 14.75 4.5 13.9375 4.5ZM13.9375 6.6875C13.5625 6.6875 13.25 6.375 13.25 6C13.25 5.625 13.5625 5.3125 13.9375 5.3125C14.3125 5.3125 14.625 5.625 14.625 6C14.625 6.375 14.25 6.6875 13.9375 6.6875ZM17.5625 6.375C17.5625 6.125 17.5625 5.9375 17.5625 5.6875L18.5 5C18.6875 4.875 18.75 4.625 18.625 4.4375L17.6875 2.875C17.5625 2.6875 17.375 2.625 17.125 2.6875L16.0625 3.125C15.875 3 15.6875 2.875 15.4375 2.8125L15.25 1.6875C15.25 1.4375 15.0625 1.25 14.8125 1.25H12.9375C12.6875 1.25 12.5 1.4375 12.5 1.625L12.3125 2.75C12.125 2.875 11.875 2.9375 11.6875 3.0625L10.5625 2.625C10.375 2.5625 10.125 2.625 10 2.8125L9.0625 4.375C8.9375 4.5625 9 4.8125 9.1875 4.9375L10.125 5.625C10.125 5.875 10.125 6.0625 10.125 6.3125L9.1875 7C9 7.125 8.9375 7.375 9.0625 7.5625L10 9.125C10.125 9.3125 10.3125 9.375 10.5625 9.3125L11.6875 8.875C11.875 9 12.0625 9.125 12.3125 9.1875L12.5 10.3125C12.5625 10.5 12.75 10.6875 12.9375 10.6875H14.8125C15.0625 10.6875 15.25 10.5 15.25 10.3125L15.4375 9.1875C15.625 9.0625 15.875 9 16.0625 8.875L17.125 9.3125C17.3125 9.375 17.5625 9.3125 17.6875 9.125L18.625 7.5625C18.75 7.375 18.6875 7.125 18.5 7L17.5625 6.375ZM17.125 8.4375L16.125 8.0625C16 8 15.8125 8 15.6875 8.125C15.4375 8.3125 15.1875 8.5 14.875 8.5625C14.75 8.625 14.625 8.75 14.5625 8.9375L14.4375 9.9375H13.375L13.25 8.9375C13.25 8.75 13.125 8.625 12.9375 8.5625C12.625 8.4375 12.375 8.3125 12.125 8.125C12 8 11.8125 8 11.6875 8.0625L10.6875 8.4375L10.1875 7.5625L11 6.9375C11.125 6.8125 11.1875 6.6875 11.1875 6.5C11.125 6.1875 11.125 5.875 11.1875 5.5625C11.1875 5.375 11.125 5.25 11 5.125L10.1875 4.5L10.6875 3.625L11.6875 4C11.8125 4.0625 12 4.0625 12.125 3.9375C12.375 3.75 12.625 3.5625 12.9375 3.5C13.125 3.4375 13.1875 3.3125 13.25 3.125L13.375 2.125H14.4375L14.625 3.125C14.625 3.3125 14.75 3.4375 14.9375 3.5C15.25 3.625 15.5 3.75 15.75 3.9375C15.875 4.0625 16.0625 4.0625 16.1875 4L17.1875 3.625L17.6875 4.5L16.875 5.125C16.75 5.25 16.6875 5.375 16.6875 5.5625C16.75 5.875 16.75 6.1875 16.6875 6.5C16.6875 6.6875 16.75 6.8125 16.875 6.9375L17.6875 7.5625L17.125 8.4375Z" fill="#686868"/>
</svg>
