<svg width="20" height="20" viewBox="0 0 20 20" fill="none" xmlns="http://www.w3.org/2000/svg">
<path fill-rule="evenodd" clip-rule="evenodd" d="M17.5 10C17.5 14.1421 14.1421 17.5 10 17.5C5.85786 17.5 2.5 14.1421 2.5 10C2.5 5.85786 5.85786 2.5 10 2.5C14.1421 2.5 17.5 5.85786 17.5 10ZM18.75 10C18.75 14.8325 14.8325 18.75 10 18.75C5.16751 18.75 1.25 14.8325 1.25 10C1.25 5.16751 5.16751 1.25 10 1.25C14.8325 1.25 18.75 5.16751 18.75 10ZM14.375 10C14.375 12.4162 12.4162 14.375 10 14.375C7.58375 14.375 5.625 12.4162 5.625 10C5.625 7.58375 7.58375 5.625 10 5.625C12.4162 5.625 14.375 7.58375 14.375 10ZM15.625 10C15.625 13.1066 13.1066 15.625 10 15.625C6.8934 15.625 4.375 13.1066 4.375 10C4.375 6.8934 6.8934 4.375 10 4.375C13.1066 4.375 15.625 6.8934 15.625 10Z" fill="#686868"/>
</svg>
