<svg width="209" height="144" viewBox="0 0 209 144" fill="none" xmlns="http://www.w3.org/2000/svg">
<ellipse cx="104.5" cy="72" rx="69.8865" ry="70" fill="white"/>
<path d="M160.989 113.222C169.414 101.659 174.386 87.4111 174.386 72C174.386 33.3401 143.097 2 104.5 2C65.9025 2 34.6133 33.3401 34.6133 72C34.6133 110.66 65.9025 142 104.5 142C116.051 142 126.949 139.193 136.548 134.222M154.409 121C151.485 123.988 148.295 126.714 144.879 129.141" stroke="black" stroke-width="4" stroke-linecap="round"/>
<path d="M13.6479 118.667V124.5" stroke="#333333" stroke-width="4" stroke-linecap="round" stroke-linejoin="round"/>
<path d="M13.6479 136.166V141.999" stroke="#333333" stroke-width="4" stroke-linecap="round" stroke-linejoin="round"/>
<path d="M2 130.333H7.82387" stroke="#333333" stroke-width="4" stroke-linecap="round" stroke-linejoin="round"/>
<path d="M19.4727 130.333H25.2965" stroke="#333333" stroke-width="4" stroke-linecap="round" stroke-linejoin="round"/>
<path d="M195.351 2V7.83333" stroke="#333333" stroke-width="4" stroke-linecap="round" stroke-linejoin="round"/>
<path d="M195.351 19.5V25.3333" stroke="#333333" stroke-width="4" stroke-linecap="round" stroke-linejoin="round"/>
<path d="M183.703 13.6663H189.527" stroke="#333333" stroke-width="4" stroke-linecap="round" stroke-linejoin="round"/>
<path d="M201.176 13.6663H207" stroke="#333333" stroke-width="4" stroke-linecap="round" stroke-linejoin="round"/>
<path d="M76.543 76.6665L94.4028 94.5553L133.229 54.8887" stroke="black" stroke-width="4" stroke-linecap="round" stroke-linejoin="round"/>
</svg>
