<svg width="20" height="20" viewBox="0 0 20 20" fill="none" xmlns="http://www.w3.org/2000/svg">
<path fill-rule="evenodd" clip-rule="evenodd" d="M5.44454 2.13697C4.93947 1.64374 4.13308 1.64374 3.62801 2.13697L1.25 4.4592L2.13425 5.36034L3.90424 3.63186V16.4633L2.11887 14.833L1.26538 15.7632L3.65968 17.9495C4.15615 18.4029 4.91639 18.4029 5.41287 17.9495L7.80717 15.7632L6.95368 14.833L5.16831 16.4633V3.63186L6.9383 5.36034L7.82255 4.4592L5.44454 2.13697ZM9.27653 4.65439H18.125V3.39336H9.27653V4.65439ZM18.125 10.329H9.27653V9.06801H18.125V10.329ZM9.27654 16.3189H18.125V15.0579H9.27654V16.3189Z" fill="#686868"/>
</svg>
